<?xml version="1.0" encoding="utf-8"?>
<!-- Generator: $$$/GeneralStr/196=Adobe Illustrator 27.6.0, SVG Export Plug-In . SVG Version: 6.00 Build 0)  -->
<svg version="1.1" id="Calque_2_00000181795234408634748290000010547345247191728531_"
	 xmlns="http://www.w3.org/2000/svg" xmlns:xlink="http://www.w3.org/1999/xlink" x="0px" y="0px" viewBox="0 0 1200 500"
	 style="enable-background:new 0 0 1200 500;" xml:space="preserve">

<g id="Layer_1">
	<path class="st0" d="M13.4,271.9c-4.6,0.5-9,1.3-13.4,2.3v-1c4.4-1.1,8.8-1.9,13.3-2.3c82.4-8.6,114.2-40.2,132.7-66.8
		c10.6-15.2,26.9-23,48.6-23.1c8.4-0.1,16.8,0.8,25,1.7c12.1,1.3,24.6,2.6,36.8,0.8c20.9-3.1,43.5-2.7,71,1
		c10.2,1.4,18.3-0.6,22.8-5.8c4.4-4.9,5.4-12.3,3-21.6c-9.2-35.8-15.7-72.4-19.5-108.8c-2-18.9-1.7-34.4,0.8-48.4h1
		c-2.5,13.9-2.8,29.4-0.8,48.3c3.8,36.4,10.3,73,19.5,108.7c2.5,9.6,1.3,17.3-3.3,22.5c-4.8,5.4-13,7.5-23.7,6.1
		c-27.5-3.8-49.9-4.1-70.8-1c-12.3,1.8-24.9,0.5-37-0.8c-8.1-0.9-16.5-1.8-24.9-1.7c-21.3,0.1-37.4,7.8-47.8,22.7
		C111.4,255.6,56.9,267.3,13.4,271.9L13.4,271.9z M450.9,13.1c15,7.2,26.7,14.4,35.6,26.1C500.1,57,498,76.4,495.9,97
		c-0.1,1.3-0.3,2.6-0.4,3.9c-4,39.7,0.1,53.9,34.9,71.6c9.3,4.7,18.3,9.5,25.8,15.7c18.4,15.4,37.5,31.3,34,60.8
		c-1.5,12.4-7.7,22-13.7,31.3c-1.5,2.4-3.1,4.8-4.6,7.2c-8.6,14.2-11.1,28.2-7.3,40.4c3.8,12.2,13.7,22.3,28.7,29.1
		c4.4,2,8.7,3,12.5,3c3.5,0,6.8-0.8,9.5-2.5c5.7-3.5,9.1-10.4,9.6-19.4c0.4-7.6,0.3-15.3,0.2-22.7c0-3.8-0.1-7.8-0.1-11.6
		c0.1-20.8,12.8-33.6,33.9-34.3c21.4-0.6,38.9-4.9,53.6-13.1c16.6-9.3,34.2-16.1,49.3-21.7c50.8-18.8,86.1-54.1,105-104.7
		c6.4-17,7.5-35,8.5-52.4c0.2-3.7,0.5-7.6,0.7-11.3c2.2-29.5-5.2-51.2-22.6-66.3h-1.5c17.7,14.9,25.3,36.7,23.1,66.3
		c-0.3,3.8-0.5,7.6-0.7,11.3c-1,17.3-2.1,35.2-8.4,52.1c-18.8,50.4-54,85.4-104.4,104.1c-15.2,5.6-32.8,12.4-49.5,21.8
		c-14.5,8.1-31.9,12.4-53.1,13c-21.7,0.6-34.8,13.8-34.9,35.2c0,3.9,0,7.8,0.1,11.7c0.1,7.4,0.2,15.1-0.2,22.7
		c-0.5,8.7-3.7,15.3-9.1,18.6c-5.5,3.3-13,3.1-21.1-0.6c-14.7-6.7-24.5-16.5-28.2-28.5c-3.7-12-1.2-25.7,7.2-39.6
		c1.5-2.4,3-4.9,4.6-7.2c6.1-9.4,12.3-19.1,13.9-31.7c3.6-30-15.7-46.1-34.3-61.7c-7.5-6.3-16.6-11.1-26-15.9
		c-34.3-17.4-38.3-31.4-34.4-70.6c0.1-1.3,0.3-2.6,0.4-3.9c2.1-19.9,4.2-40.4-9.6-58.5c-9-11.8-20.9-19.1-35.9-26.4
		c-7.5-3.6-15.5-6.7-23.1-9.6c-2.2-0.8-4.5-1.7-6.7-2.6h-2.7c3,1.2,6.1,2.4,9.1,3.5C435.5,6.4,443.4,9.4,450.9,13.1L450.9,13.1z
		 M1182.6,322c-18.8-12.4-38.3-25.2-60.1-33.8c-12.7-5-20.2-15.3-21.9-29.8c-1.7-15.2-3.8-34.2-18.3-45.8
		c-16.3-13.1-33.1-21.7-51.5-26.3c-20.5-5.1-41.4-5-61.6-4.8c-7,0.1-14.2,0.1-21.2-0.1c-15.8-0.4-26.4-9.2-29.7-25
		c-7.7-36.8-6.5-74.6-5.3-111.1c0.3-9.5,0.6-19.4,0.8-29.1c0.1-5.3,0.1-10.8-0.1-16.2h-1c0.2,5.3,0.2,10.8,0.1,16.1
		c-0.2,9.7-0.5,19.6-0.8,29.1c-1.2,36.6-2.4,74.4,5.4,111.3c3.4,16.3,14.3,25.4,30.7,25.8c7.1,0.2,14.3,0.1,21.3,0.1
		c20.2-0.1,41.1-0.3,61.4,4.8c18.2,4.6,34.9,13.1,51.1,26.1c14.1,11.4,16.1,29.3,17.9,45.1c1.7,14.9,9.4,25.5,22.5,30.6
		c21.7,8.5,41.1,21.3,59.9,33.7l1.8,1.1c5,3.3,10.6,5.6,16.2,7.9v-1.1c-5.4-2.2-10.8-4.5-15.6-7.7L1182.6,322L1182.6,322z
		 M130.6,202.8c20.1-29.4,49.4-40.9,89.6-35.2c26.9,3.8,55.6-0.6,87.7-13.6c10.7-4.3,17.1-13.6,18.1-26.2c2-24.6-1.8-49.5-11-73.9
		c-5.7-15.1-12.2-32.3-9.7-49.7c0.2-1.4,0.4-2.7,0.5-4.1h-1c-0.2,1.3-0.3,2.6-0.5,3.9c-2.5,17.7,4,35,9.8,50.2
		c9.2,24.3,12.9,49,11,73.5c-1,12.4-7,21.2-17.5,25.4c-32,12.9-60.5,17.4-87.2,13.6c-40.6-5.8-70.2,5.9-90.5,35.6
		c-24.5,35.8-61.7,54.4-110.5,55.2c-6.9,0.1-13.2,0.7-19.3,1.6v1c6.1-1,12.4-1.5,19.3-1.7C68.4,257.6,105.9,238.9,130.6,202.8
		L130.6,202.8z M1007.6,445.7c-2.2,0-4.5-0.1-6.7-0.2c-7-0.2-14.1-0.4-21.1,0.3c-39.4,4-47.6-21.5-50.3-47
		c-2.8-25.9,1.3-52.4,12.5-81.1c2.5-6.3,4.1-12.8,5.7-19c2.2-8.8,0.8-16.5-3.8-21.7c-4.9-5.5-13.1-7.7-22.9-6.4
		c-9.2,1.2-18.1,3.9-26.8,6.5c-5.9,1.7-11.9,3.5-18,4.9c-26.7,5.9-47.1,3.2-64.3-8.6c-7.2-4.9-11.1-10-12.1-15.7
		c-1-6.1,1.4-13.1,7.5-21.5c6.1-8.4,12.8-16.7,19.2-24.7c18.2-22.7,37.1-46.1,46.1-75.3c11-35.8,10.4-72.3,8.4-103.4
		C880.1,20,875,9,865.9,0h-1.5c9.5,8.9,14.7,20,15.5,32.9c2,31,2.7,67.4-8.3,103c-9,29-27.8,52.4-46,75c-6.5,8-13.1,16.3-19.3,24.7
		c-6.3,8.6-8.8,15.9-7.7,22.3c1,5.9,5.1,11.2,12.5,16.3c17.4,11.9,38.1,14.7,65.1,8.8c6.1-1.4,12.2-3.1,18-4.9
		c8.6-2.6,17.5-5.2,26.6-6.4c9.5-1.3,17.4,0.9,22.1,6.1c4.4,4.9,5.7,12.3,3.6,20.8c-1.5,6.1-3.2,12.6-5.6,18.8
		c-11.3,28.8-15.4,55.5-12.6,81.6c2.8,26,11.1,52,51.4,47.9c6.9-0.7,14.1-0.5,21-0.3c2.2,0.1,4.5,0.1,6.7,0.2
		c26.3,0.5,43.6,10.4,54.6,31.4c4.2,8,9.2,15.3,15.1,21.9h1.3c-6-6.7-11.2-14.2-15.5-22.3C1051.9,456.3,1034.3,446.2,1007.6,445.7
		L1007.6,445.7z M786.1,461.2c18.8-11.6,26.2-24.6,24.2-42.3c-2.3-19.6-4.3-39.7-6.3-61.4c-1.1-12.3-6.6-22.4-17.4-31.7
		c-15.8-13.7-24.7-27-28.1-41.8c-1.1-5-2.7-7.7-5-8.7c-2.9-1.2-6.7,0.7-10.3,3c-15,9.4-30.6,16.9-46.2,22.2
		c-17.8,6-29.9,18.3-36.1,36.4l-0.9,2.6c-3.2,9.4-6.4,19-11.2,28c-8.3,15.8-21.9,22.8-40.4,20.8c-15.6-1.6-29.9-6.2-41.9-10.5
		c-11.7-4.2-25.8-8-41.6-4c-13.2,3.3-26.4,7.4-39.1,12.1c-20.5,7.7-54.6-3.4-63.7-26.8c-2.7-7-5.8-14.1-8.8-20.9
		c-5.1-11.8-10.4-24-14.2-36.6l-0.2-0.7c-2.4-8-4.9-16.3-4.1-25c0.9-9.4,4.3-16,9.9-19.2c5.6-3.2,13.1-2.8,21.6,1.2
		c12,5.6,23.4,12.6,34.5,21.5c15.7,12.3,43.7,16.1,56.7,7.7c12.2-8,24-18.8,36-33c9.8-11.6,10.4-29.1,1.4-43.6
		c-9-14.5-22.7-23.5-44.3-29.1c-18.2-4.7-27.4-14-28.1-28.3l-0.2-3.8c-0.9-17.7-1.9-36.1,1.5-54c6.1-32.5-3.6-54.7-28.9-65.8
		c-21.3-9.3-38.7-13.1-56.4-12.2c-20.2,1-39.7,17.2-44.4,36.7c-8.8,36.8,5.4,67.9,18.7,91c8.2,14.2,13.6,29.5,16.5,46.7
		c2,12.2-2,24.1-11.8,34.3c-6.8,7.2-14.1,4.3-21.8,1.2c-1.9-0.8-4-1.6-5.9-2.2c-1.4-0.4-2.8-1.1-4.2-1.9c-1-0.5-1.9-1-3-1.5
		c-5.4-2.3-10.8-4.8-16.1-7.3c-18-8.4-36.5-17.1-57.4-16.9c-17.4,0.1-36.3-1.2-57.8-3.9c-23-2.9-39.8,2.2-54.5,16.8
		c-4.1,4-7.9,8.4-11.6,12.6c-8.5,9.6-17.3,19.6-29.1,26.1c-23.9,13.2-51.1,22.4-88.2,29.9c-1.5,0.3-3.1,0.6-4.6,0.9
		c-7.8,1.6-15.8,3.2-23.5,5.3v1c7.8-2.1,15.9-3.8,23.7-5.3c1.5-0.3,3.1-0.6,4.6-0.9c37.1-7.5,64.4-16.8,88.5-30.1
		c12-6.6,20.9-16.6,29.4-26.3c3.7-4.2,7.6-8.6,11.6-12.5c14.5-14.3,31-19.4,53.7-16.5c21.5,2.8,40.4,4.1,57.9,4c0.1,0,0.3,0,0.4,0
		c20.5,0,38.8,8.6,56.6,16.8c5.3,2.5,10.7,5,16.1,7.3c1,0.4,1.9,0.9,2.9,1.4c1.4,0.7,2.8,1.5,4.3,2c1.9,0.6,3.9,1.4,5.8,2.1
		c7.7,3.1,15.7,6.2,22.9-1.4c10-10.5,14.1-22.6,12-35.2c-2.9-17.3-8.4-32.7-16.6-47.1c-13.2-22.9-27.3-53.8-18.6-90.2
		c4.6-19.2,23.7-34.9,43.5-36c17.6-0.9,34.9,2.8,56,12.1C479.6,41.2,489.1,63,483.1,95c-3.4,18.1-2.5,36.5-1.5,54.2l0.2,3.8
		c0.7,14.6,10.5,24.5,28.9,29.3c21.4,5.6,34.9,14.4,43.7,28.7c8.8,14.1,8.2,31.1-1.3,42.4c-12,14.2-23.7,24.9-35.8,32.8
		c-12.6,8.2-40.1,4.5-55.5-7.6c-11.2-8.9-22.6-15.9-34.7-21.6c-8.9-4.1-16.6-4.5-22.6-1.1c-5.9,3.4-9.5,10.3-10.4,20
		c-0.8,8.9,1.7,17.2,4.1,25.3l0.2,0.7c3.8,12.6,9.1,24.9,14.2,36.7c3,6.8,6,13.9,8.7,20.9c9.3,23.9,44.1,35.2,65,27.4
		c12.6-4.8,25.8-8.8,39-12.1c15.5-3.9,29.5-0.1,41,4c12,4.3,26.4,8.9,42.1,10.6c19,2,32.9-5.2,41.4-21.3c4.8-9,8-18.7,11.2-28.1
		l0.9-2.6c6.1-17.8,18-29.9,35.5-35.8c15.7-5.3,31.3-12.9,46.4-22.3c4.6-2.9,7.4-3.7,9.4-2.9c2,0.8,3.4,3.4,4.4,8
		c3.4,15.1,12.4,28.5,28.4,42.4c10.6,9.1,16,19,17.1,31c2,21.7,4,41.8,6.3,61.5c2,17.2-5.3,29.9-23.7,41.3c-4.8,3-9.7,5.9-14.4,8.7
		c-15.6,9.4-31.8,19-46,31h1.6c14-11.5,29.7-21,44.9-30.1C776.5,467.1,781.4,464.1,786.1,461.2L786.1,461.2z M1154,358.6
		c-22.1-7.3-40.9-11-61.1-5.6c-16.8,4.5-26.6,12.9-30.8,26.4c-0.6,1.8-1.1,3.6-1.6,5.4c-1.6,5.3-3.2,10.7-5.3,15.8
		c-5.9,13.9-14.7,21.6-27,23.7c-13.2,2.2-27.4,3.1-44.6,2.9c-24.7-0.4-33.8-7.8-37.5-30.8c-5.2-32,3-59.7,24.3-82.5
		c7.6-8.1,17.2-13.3,29.3-16c14-3.1,28.4-8.5,29.2-25.1c0.6-13.1-7.1-22.7-24.3-30.1c-11.9-5.1-23.7-7.2-35.3-7.2
		c-17.1,0-34.1,4.4-51.2,9.4c-4.9,1.4-9.7,3.2-14.4,4.9c-12.7,4.6-25.8,9.3-40.2,8.2c-14.4-1.1-20.9-7.5-21.8-21.4
		c-1.1-17.1,6.8-31.2,13.8-41.6c22.9-34.1,33.7-74,33.9-125.5c0-4.8,0-9.6,0-14.4v-6.7c0-23.4-3-37.6-10.5-48.5h-1.2
		c7.7,10.7,10.8,24.8,10.8,48.5v6.7c0,4.8,0,9.6,0,14.4c-0.2,51.3-11,91-33.8,125c-7.1,10.6-15.1,24.9-14,42.2
		c0.9,14.5,7.7,21.2,22.7,22.3c14.6,1.1,27.8-3.7,40.7-8.3c4.7-1.7,9.5-3.4,14.4-4.8c28.5-8.4,56.5-14.9,85.8-2.3
		c16.7,7.2,24.2,16.5,23.7,29.2c-0.7,15.9-14.1,21-28.4,24.1c-12.4,2.7-22.2,8.1-29.9,16.3c-21.6,23-29.8,51-24.6,83.3
		c3.8,23.2,13.5,31.2,38.5,31.6c1.8,0,3.6,0,5.4,0c14.8,0,27.5-1,39.4-2.9c12.6-2.1,21.7-10.1,27.7-24.3c2.2-5.2,3.8-10.6,5.4-16
		c0.5-1.8,1.1-3.6,1.6-5.4c4.1-13.3,13.4-21.3,30.1-25.8c19.9-5.3,38.5-1.6,60.5,5.6c7.1,2.4,14,5.7,20.7,8.9
		c8.2,4,16.6,8,25.6,10.4v-1c-8.8-2.3-17.1-6.4-25.2-10.3C1168.1,364.4,1161.2,361,1154,358.6L1154,358.6z M897.6,120.9
		c0-3,0.1-6,0.1-9.1c-0.4,9.3-1.3,19-2.5,29C896.6,134.3,897.5,127.6,897.6,120.9L897.6,120.9z M898.7,70.2c0-5.4,0.2-10.8,0.6-16.3
		c0.2-4.1,0.3-8.2,0.5-12.5c-2.5,14.6-2.2,29.3-1.9,43.5c0,3,0.1,6,0.1,9c0,0.1,0,0.2,0,0.4C898.2,86.5,898.5,78.5,898.7,70.2
		L898.7,70.2z M896.3,3.3c1.3,4.5,2.6,9.2,3.4,14.1C899.1,12.4,898,7.7,896.3,3.3z M1110,311.6c-7.9-2-14.5-5.4-20.6-10.5
		c-10.9-9.2-12.2-21.5-13.5-33.4c-0.3-2.4-0.5-4.9-0.9-7.3c-5.6-39-45-68.3-84.4-62.8c-24.5,3.4-50.2,5.1-78.4,5.1
		c-0.6,0-1.1,0-1.7,0c-6,0-10.1-1.3-12.6-3.9c-2.3-2.4-3.3-6.1-3-11.2c0.1-1.4,0.1-2.9,0.2-4.3c0.1-3.8,0.2-7.7,1.1-11.3
		c7.5-33.1,7.5-67.2,7.5-100.2c0-17.1,0-34.9,1-52.2C905,12.6,904.5,6.1,903,0h-1c1.5,6.1,2,12.6,1.6,19.4c-1,17.4-1,35.1-1,52.3
		c0,32.9,0,67-7.4,100c-0.8,3.8-1,7.7-1.1,11.5c0,1.4-0.1,2.9-0.2,4.3c-0.3,5.4,0.8,9.2,3.2,11.9c2.7,2.9,7,4.2,13.3,4.3
		c29,0.1,55.2-1.6,80.2-5.1c38.8-5.4,77.8,23.5,83.3,62c0.3,2.4,0.6,4.9,0.9,7.2c1.3,12.1,2.7,24.7,13.9,34.1
		c6.2,5.3,12.9,8.7,21,10.7c24.9,6.3,50.2,16.3,79.5,31.5c3.4,1.8,7.1,3.1,10.8,4.3v-1c-3.5-1.2-7-2.5-10.3-4.2
		C1160.3,328,1135,318,1110,311.6L1110,311.6z M1181,353.7c-24.9-12.5-53.1-20.2-88.7-24.2c-4.1-0.5-8.4-1.4-14.1-3
		c-13.6-3.8-21.6-14.2-21.9-28.6c-0.1-3.1,0-6.2,0.1-9.2c0.1-6.6,0.3-13.4-0.9-19.8c-6.9-37.2-21.4-49.5-62.1-52.8
		c-5.1-0.4-10.2-0.6-15.3-0.6c-25.8,0-52,5.2-77.9,15.5c-3.7,1.5-7,2.4-10,2.9c-9.4,1.5-16.6-0.1-20.7-4.8c-4-4.6-4.7-11.8-2-20.7
		c4.1-13.6,8.5-25.8,13.4-37.2c10.8-25,15.4-49,14-73.3c-0.6-11.1,0.4-22.2,1.3-33c0.8-8.5,1.5-17.4,1.5-26.1
		c0-16.8-2.2-28.9-7-38.7h-1.1c4.8,9.7,7.1,21.8,7.1,38.7c0,8.7-0.8,17.5-1.5,26.1c-0.9,10.8-1.9,22-1.3,33.2
		c1.3,24.2-3.2,48.1-14,72.9c-4.9,11.4-9.3,23.6-13.4,37.3c-2.8,9.3-2,16.8,2.2,21.7c4.3,4.9,11.8,6.7,21.6,5.1
		c3.2-0.5,6.5-1.5,10.2-3c30.9-12.3,62.1-17.3,92.8-14.9c40.1,3.2,54.4,15.4,61.2,51.9c1.2,6.4,1.1,13.1,0.9,19.6
		c-0.1,3-0.1,6.2-0.1,9.3c0.3,14.6,8.8,25.6,22.7,29.5c5.7,1.6,10.1,2.5,14.3,3c35.5,4,63.6,11.7,88.4,24.1l1,0.5
		c5.9,3,12,6,18.4,7.9v-1c-6.3-1.9-12.2-4.9-18-7.7L1181,353.7L1181,353.7z M913.3,391.2c0.2-22.1,0.7-43.7,4.8-65.5
		c1.8-9.3,0-16.8-4.9-21c-5.1-4.4-13.1-5.1-22.5-1.8c-7.1,2.5-14.2,5.2-21,7.8c-5.7,2.2-11.5,4.4-17.3,6.5
		c-12.4,4.5-16.9,14.3-19.7,23.4c-7.9,25.9-7.4,53.1,1.7,88.3c4,15.6-2.5,28.5-17,33.6c-18.8,6.6-36,16.7-52.6,26.4
		c-5.7,3.4-11.7,6.8-17.6,10.1c-0.6,0.3-1.2,0.6-1.7,1h2c0.1,0,0.1-0.1,0.2-0.1c5.9-3.3,11.9-6.8,17.6-10.1
		c16.6-9.7,33.7-19.7,52.4-26.3c15.1-5.3,21.8-18.7,17.6-34.8c-9.1-35-9.6-62.1-1.8-87.7c2.7-8.8,7.1-18.5,19-22.8
		c5.8-2.1,11.7-4.3,17.3-6.5c6.9-2.6,14-5.3,21-7.8c9-3.1,16.7-2.6,21.5,1.6c4.7,4,6.3,11.1,4.5,20.1c-4.2,21.9-4.7,43.5-4.9,65.7
		c-0.2,21.2,2.8,41.6,6.4,64.2c2.6,16.3,2.2,16.9-13.8,20.8c-2.7,0.6-5.4,1-8.1,1.3c-6.5,0.8-13.3,1.7-19.4,6.9
		c-4.8,4.1-8,9.2-9.8,15.7h1c1.8-6.2,4.8-10.9,9.4-14.9c5.8-5,12.1-5.8,18.8-6.6c2.7-0.3,5.5-0.7,8.2-1.4c17-4.1,17.2-5.4,14.5-21.9
		C916.1,432.7,913.1,412.3,913.3,391.2L913.3,391.2z M993.4,462.3c-10.6,1.3-21.2,4.2-31.5,6.9c-6.1,1.6-12.4,3.3-18.7,4.6
		c-5.5,1.2-9,3.2-10.6,6.3c-1.7,3.2-1.3,7.6,1.2,13.7l1.2,2.9c0.5,1.1,0.9,2.2,1.4,3.3h1.1c-0.5-1.2-1-2.5-1.5-3.7l-1.2-2.9
		c-2.4-5.8-2.8-9.9-1.2-12.8c1.5-2.8,4.7-4.6,9.9-5.8c6.3-1.4,12.6-3,18.7-4.6c10.2-2.7,20.8-5.5,31.4-6.9
		c19.9-2.5,37.5,4.9,48.3,20.4c4,5.7,8.3,11.2,13,16.3h1.3c-4.8-5.3-9.3-11-13.5-16.9C1031.6,467.4,1013.7,459.8,993.4,462.3
		L993.4,462.3z M786.4,408l-0.2-2c-1.6-13.1-3.3-26.7-8.2-39.4c-6.2-16.1-23.8-29.2-42.7-31.9c-15.4-2.2-28.6,2.7-37.2,13.9
		c-8.4,10.9-11.1,22.2-13.3,33.7c-3.6,19-9.4,24.7-29.5,29.4c-10.9,2.5-21.6,0.9-32-0.7c-3.1-0.5-6.3-1-9.5-1.4
		c-9.2-1.1-18.5-2.9-27.5-4.7c-7.5-1.5-15.3-3-23.1-4.1c-25.4-3.6-47.4,6.1-69.5,17.2c-18.8,9.4-41.9,9-62-1.1
		c-18.1-9.1-30.2-24.6-33.3-42.3c-4.6-26.9-13.3-51.2-23.5-78c-9-23.8-25.9-39.4-42.7-52.6c-36-28.3-79.5-31.6-121.6-34.8
		c-4.2-0.3-8.5-0.6-12.7-1c-12.6-1-25.2,5.4-34.7,17.5c-19.9,25.5-47.2,42-86.1,51.9c-4.8,1.2-9.7,2.6-14.4,3.9
		c-10.7,3-21.8,6.2-32.9,7.7c-10.3,1.5-20.4,4.1-29.9,7.8v1.1c9.6-3.8,19.7-6.4,30.1-7.9c11.2-1.6,22.3-4.7,33.1-7.8
		c4.7-1.3,9.6-2.7,14.4-3.9c39.1-10,66.7-26.6,86.7-52.2c9.3-11.9,21.6-18.1,33.8-17.1c4.2,0.4,8.5,0.7,12.7,1
		c41.9,3.2,85.3,6.5,121,34.6c16.8,13.2,33.5,28.6,42.4,52.2c10.1,26.8,18.9,51.1,23.4,77.9c3.1,18,15.4,33.7,33.8,43
		c20.4,10.3,43.9,10.7,62.9,1.1c22-11.1,43.8-20.7,68.9-17.2c7.7,1.1,15.5,2.6,23,4.1c9,1.8,18.3,3.6,27.6,4.7
		c3.1,0.4,6.3,0.9,9.4,1.4c10.5,1.6,21.2,3.3,32.4,0.7c20.6-4.8,26.5-10.7,30.2-30.2c2.2-11.4,4.8-22.5,13.1-33.3
		c8.3-10.9,21.2-15.7,36.2-13.5c18.6,2.7,35.8,15.5,41.9,31.3c4.8,12.5,6.5,26,8.1,39.1l0.2,2c2.6,21-6.8,37.5-26.5,46.6
		c-23.1,10.6-41.1,25.5-54.8,45.3h1.2c13.5-19.4,31.2-34,54-44.4C779.4,446.4,789,429.5,786.4,408L786.4,408z M42.8,300.5
		c-4,0.9-7.9,1.7-11.9,2.6c10.5-2.1,21-4.5,31.4-6.9c-4.5,1-8.9,1.9-13.2,2.9C47,299.6,44.9,300.1,42.8,300.5z M552.1,433
		c-10.5,1.1-19.9,5.6-27.3,13c-20.9,21.2-45.8,28.4-74.1,21.6c-8.7-2.1-17.4-0.9-25.8,0.4c-4.9,0.7-10,1.4-15,1.5
		c-19.2,0.2-20.6-1.7-27.4-19c-10.2-26.1-15.5-55.1-16.4-91.3c-0.6-22.3-11.1-47.9-28.3-68.5c-19.2-23-44.3-37.4-70.7-40.4
		c-6-0.7-12-1.5-17.9-2.2c-7.8-1-15.9-2.1-23.9-2.9c-16.6-1.7-27.4,8.4-37.9,18.1c-1.4,1.3-2.7,2.5-4.1,3.8
		c-19,17-43,26.1-73.4,27.9C73.5,297,37.5,304.5,0,317.7v1.1c37.6-13.2,73.6-20.7,110-22.9c30.7-1.8,54.9-11,74-28.2
		c1.4-1.2,2.8-2.5,4.1-3.8c10.4-9.6,21.1-19.4,37.2-17.8c8,0.8,16,1.9,23.8,2.9c5.9,0.8,11.9,1.6,17.9,2.2c26.1,3,51,17.2,70,40.1
		c17,20.4,27.5,45.8,28,67.9c0.9,36.4,6.1,65.5,16.4,91.7c6.9,17.6,8.9,19.8,28.4,19.6c5.1,0,10.2-0.8,15.1-1.5
		c8.3-1.2,16.9-2.4,25.4-0.4c28.7,6.9,54-0.4,75.1-21.9c7.2-7.3,16.4-11.7,26.7-12.8c44.8-4.6,80.1,10.9,104.9,46.1
		c4.6,6.5,7.4,12.9,8.6,19.9h1c-1.3-7.2-4.1-13.8-8.8-20.5C632.9,444,597.3,428.3,552.1,433L552.1,433z M645.9,436.6
		c-16.6-7-34-12.5-51.7-16.2c-28.5-6-58.4-8.4-83.8,14.9c-15.2,13.9-34,18.2-57.3,13.1c-46.5-10.2-66.6-22.2-70.9-70.3
		c-2.9-32.5-10.6-58.8-24.4-82.8c-14.4-25.1-35.6-43.3-63-54.1c-24.9-9.8-51.3-13.7-78.4-17.2c-20-2.6-36.2,4.9-48.2,22.1
		c-8.5,12.3-19.9,21-33.8,25.9c-30.3,10.8-62.1,17.6-89.2,22.9C28,298.1,13.1,302.5,0,308.1v1.1c13.2-5.6,28.1-10,45.4-13.4
		c27.1-5.3,59-12.1,89.4-22.9c14.1-5,25.6-13.9,34.2-26.3c11.7-16.9,27.6-24.1,47.2-21.6c27.1,3.5,53.4,7.4,78.2,17.1
		c27.1,10.7,48.2,28.8,62.5,53.7c13.6,23.8,21.4,50,24.2,82.4c2.1,23.9,8.2,39.2,19.7,49.7c10.3,9.4,25.3,15.6,52,21.5
		c23.7,5.2,42.7,0.8,58.2-13.3c25.1-22.9,54.7-20.6,82.9-14.6c17.6,3.7,35,9.1,51.5,16.1c16.5,7,27.8,20.6,36.8,32.9
		c5.8,8,4.3,19.3,2.5,29.6h1c1.8-10.5,3.3-21.8-2.7-30.2C674.1,457.3,662.6,443.6,645.9,436.6L645.9,436.6z M26.7,327.2
		c-3.7,0.9-7.3,1.9-10.8,3.2C19.4,329.3,23,328.3,26.7,327.2z M299.1,279.9c-24.2-12.6-51.6-12.5-79.3,0.5l-3.6,1.7
		c-11.7,5.5-23.8,11.2-35.9,16.6c-17.9,8-39.1,16-60.8,14.2c-18.9-1.5-39-2.8-59.1,0.8c-20.3,3.5-41.2,7.2-60.4,16.9v1.1
		c19.2-9.8,40.2-13.5,60.6-17c20-3.5,40-2.3,58.8-0.8c21.9,1.8,43.3-6.2,61.3-14.3c12-5.4,24.1-11.1,35.9-16.6l3.6-1.7
		c27.4-12.9,54.5-13,78.4-0.5c30.3,15.8,48.7,42.8,52,76c2.1,21.2,2.1,44.2,0.2,72.4c-1.2,17.4-10.6,32.6-27.9,45.5
		c-10.3,7.6-17.5,16-21.9,25.4h1.1c4.3-9.1,11.4-17.2,21.4-24.6c17.3-12.8,27.1-28.8,28.3-46.2c2-28.2,1.9-51.3-0.2-72.6
		C348.3,323.1,329.7,295.9,299.1,279.9L299.1,279.9z M338.4,399.4c0.1-2,0.3-4,0.4-6c1.5-22.4,3.1-45.6-9.4-66.4
		c-20.6-34.4-52.2-45.3-94.1-32.4c-12.4,3.8-24.6,9-36.3,14c-11.7,5-23.8,10.2-36.3,14c-20.6,6.4-41.2,5.2-64,3.2
		C58.1,322.3,26.4,328,0,343.8v1.2c26.3-15.9,57.9-21.7,98.7-18.1c22.9,2,43.6,3.2,64.4-3.3c12.5-3.9,24.6-9,36.4-14
		c11.7-5,23.8-10.1,36.2-14c41.4-12.8,72.7-2,93,31.9c12.3,20.5,10.7,43.5,9.2,65.8c-0.1,2-0.3,4-0.4,6c-1.7,27.3-10,44.9-26.9,57.2
		c-5.9,4.3-12.1,8.9-19,14.3c-11,8.5-17.6,18.1-19.9,29.2h1c2.3-10.7,8.7-20.1,19.5-28.4c6.9-5.3,13.1-10,18.9-14.2
		C328.3,444.9,336.7,427,338.4,399.4L338.4,399.4z M1160.1,279.5c-5.2-3.7-10.5-7.5-15.7-11.4c-8.1-6.1-16.9-13.7-19.1-25.6
		c-2.6-14.1-9-25.7-19.4-35.2c-8.4-7.7-19.3-14.1-34.4-20c-29.3-11.6-60.9-18-94-19.2c-30.7-1.1-43.1-11.3-51-42
		c-6.8-26.1-5.6-52.9-4.4-78.8c0.3-5.9,0.5-12,0.7-17.9c0.2-7.9,1.1-15.9,2-23.6c0.2-1.9,0.4-3.8,0.6-5.7h-1
		c-0.2,1.9-0.4,3.8-0.6,5.6c-0.8,7.8-1.7,15.8-2,23.7c-0.2,6-0.5,12-0.7,17.9c-1.2,26-2.4,52.8,4.4,79.1c8.1,31.2,20.8,41.6,52,42.7
		c32.9,1.1,64.4,7.6,93.6,19.1c21.7,8.6,47.3,22.5,53.2,54.5c2.3,12.3,11.2,20,19.5,26.2c5.2,3.9,10.5,7.7,15.7,11.4
		c13.8,9.8,28,19.9,39.7,32.8c0.2,0.3,0.5,0.5,0.8,0.7v-1.3c0,0,0,0,0,0C1188.2,299.5,1173.9,289.3,1160.1,279.5L1160.1,279.5z
		 M570.7,449.7c-16-0.3-30,5.3-39.3,15.6c-17.5,19.4-38.9,28.1-61.9,25.2c-18.8-2.4-37.3,0.6-57.5,9.4h2.6
		c19.2-8,36.9-10.7,54.8-8.5c23.3,2.9,45-5.9,62.8-25.5c9.2-10.1,22.9-15.6,38.6-15.3c19,0.3,38,9,49.5,22.6
		c7.4,8.8,13.1,17.8,16.9,26.7h1.1c-3.9-9.2-9.6-18.4-17.3-27.4C609.2,458.8,590,450,570.7,449.7L570.7,449.7z M581.5,472.2
		c-10.4-5.3-21.2-4-31.3,3.9c-3.8,2.9-7.4,6.2-10.9,9.4c-5.8,5.2-11.7,10.6-18.5,14.5h1.9c6.3-3.9,11.8-8.9,17.2-13.8
		c3.5-3.2,7.1-6.5,10.8-9.4c9.8-7.6,20.3-8.9,30.3-3.8c11.3,5.8,16.7,13.8,17,25.3c0,0.6,0,1.1,0,1.7h1c0-0.6,0-1.1,0-1.7
		C598.7,486.5,593.1,478.1,581.5,472.2L581.5,472.2z M998.5,500h2.8c0.6-0.1,1.3-0.1,2,0h3.7C1004,498.9,1001.1,498.3,998.5,500z
		 M993.1,496.5c-1,1.1-2,2.2-3,3.5h1.3c0.8-1,1.6-1.9,2.4-2.8c3.9-4.1,8.4-4.8,13.7-2c3,1.6,5.8,3.1,8.3,4.8h1.8
		c-2.8-2-6-3.8-9.6-5.6C1002.2,491.3,997.3,492,993.1,496.5L993.1,496.5z M805.7,489.2c-12,2.5-23.2,6.1-33.7,10.8h2.4
		c9.8-4.3,20.4-7.6,31.5-9.9c10-2,18.6,1.5,24.4,9.9h1.2C825.5,490.9,816.4,487,805.7,489.2L805.7,489.2z M1133.5,192.6
		c-23.3-12.5-49.4-18-74.5-23.3c-5.8-1.2-11.7-2.5-17.6-3.8c-9.8-2.2-19.8-4.3-29.5-6.3c-11.4-2.4-23.2-4.8-34.8-7.5
		c-25-5.9-43.5-31.5-45-62.3c-1.7-34.8,0.3-63.4,6.2-89.4h-1c-5.9,26.1-7.9,54.7-6.2,89.5c1.5,31.3,20.3,57.3,45.8,63.3
		c11.6,2.7,23.4,5.1,34.8,7.5c9.7,2,19.7,4.1,29.5,6.3c5.8,1.3,11.8,2.6,17.6,3.8c25.1,5.3,51.1,10.8,74.3,23.2
		c15.4,8.2,32.4,17.3,51.1,17.3c5.1,0,10.4-0.7,15.8-2.3v-1C1175.2,214.9,1154,203.6,1133.5,192.6L1133.5,192.6z M1130.6,165.1
		c-1,0-2,0-3,0c-46.2,0.9-92.7-6.8-138.2-23c-30.4-10.8-46.6-33.4-46.9-65.4c0-2,0-4-0.1-5.9c-0.3-23.4-0.5-47.6,7.7-70.7h-1
		c-8.1,23.2-7.9,47.3-7.6,70.7c0,2,0,4,0.1,5.9c0.3,32.4,16.7,55.4,47.5,66.3c45.7,16.3,92.3,24,138.6,23.1
		c24.4-0.5,47.6,5.3,70.2,10.9c0.7,0.2,1.5,0.4,2.2,0.5v-1c-0.7-0.2-1.3-0.3-1.9-0.5C1176.4,170.6,1154,165.1,1130.6,165.1
		L1130.6,165.1z M1138.5,148.1c-56.3,9.2-101.7,4.3-142.6-15.6c-22.2-10.8-35.6-26.7-39.8-47.4c-3-15-4-29.5-2.9-43.1
		c1.3-15.5,4.7-29.6,10.2-42h-1.1c-5.4,12.4-8.8,26.5-10.1,41.9c-1.1,13.7-0.2,28.3,2.9,43.4c4.3,21,17.8,37.2,40.3,48.1
		c41.1,19.9,86.7,24.9,143.2,15.7c14.5-2.4,28.9-1.2,42.7,3.4c6.2,2.1,12.5,4,18.6,5.9v-1.1c-6-1.9-12.2-3.8-18.3-5.8
		C1167.7,146.8,1153.2,145.7,1138.5,148.1L1138.5,148.1z M1123.2,135.4c-4.6,0.6-9.4,1.3-14.1,1.8c-27.2,3.3-53.8,5.5-79.5-3
		c-19.4-6.4-34.3-16.1-44.4-28.8C973.6,91,968,72,968.4,49.1c0.3-18.8,4.6-35.3,12.5-49.1h-1.1c-7.9,13.8-12,30.3-12.4,49.1
		c-0.4,23.1,5.3,42.3,17,57c10.2,12.8,25.3,22.6,44.9,29.1c13.4,4.4,27,6,40.7,6c12.9,0,26-1.4,39.2-2.9c4.7-0.6,9.5-1.2,14.1-1.8
		c25.2-3.4,51.2-6.9,76.7,0.6v-1.1C1174.4,128.5,1148.4,132,1123.2,135.4L1123.2,135.4z M1170.2,117.7c-3.9,0.7-7.8,1.4-11.8,1.8
		c-10.5,1.3-21.1,3.2-31.3,5c-22.1,3.9-44.9,8-67.8,6.3c-27.4-2-49.2-12.7-62.9-31.2c-14.2-19.1-18.6-44.9-12.3-72.8
		c2-9,6.8-18.2,13.9-27h-1.3c-6.9,8.7-11.6,17.9-13.6,26.8c-6.3,28.1-1.9,54.2,12.5,73.6c13.9,18.7,35.9,29.6,63.6,31.6
		c23,1.6,45.9-2.4,68-6.4c10.2-1.8,20.8-3.7,31.3-5c3.9-0.5,7.9-1.2,11.8-1.9c9.7-1.7,19.7-3.4,29.7-2v-1
		C1189.9,114.3,1179.9,116,1170.2,117.7L1170.2,117.7z M1197.3,1.2c-0.5-0.4-1.1-0.8-1.6-1.2h-2.4c0.4,0.2,0.8,0.4,1.2,0.7l0.5,0.3
		c0.6,0.4,1.2,0.7,1.9,1.1c1.2,1,2.3,1.9,3.3,2.9V2.6C1199.1,2.2,1198.2,1.8,1197.3,1.2L1197.3,1.2z M1185.7,0
		c5.3,3.5,10.1,7.3,14.4,11.4V10c-3.8-3.5-8-6.9-12.6-10L1185.7,0L1185.7,0z M1174.1,447.4c-17.9-3.7-34.7,1.1-51.4,14.8
		c-4.3,3.5-6.8,7.8-7.2,12.5c-0.4,5.2,1.7,10.7,6.2,15.8c3.2,3.6,6.4,6.8,9.8,9.5h1.6c-3.6-2.9-7.1-6.2-10.6-10.2
		c-4.3-4.9-6.4-10.1-6-15.1c0.4-4.4,2.7-8.5,6.8-11.8c16.7-13.6,32.7-18.2,50.5-14.5c6.4,1.3,12.1,4.3,17.7,7.1
		c2.7,1.4,5.5,2.8,8.4,4v-1.1c-2.7-1.2-5.3-2.5-7.9-3.9C1186.5,451.7,1180.6,448.8,1174.1,447.4L1174.1,447.4z M1146.3,429.8
		c-7.6,2.1-15.4,4.2-22.9,6.1c-5.1,1.3-10.1,2.7-15.1,4c-9.1,2.5-15.9,7.6-19.2,14.5c-3.3,6.9-3.1,15.1,0.7,23.6
		c3.7,8.4,8.5,15.7,14.3,21.9h1.3c-6-6.3-11-13.7-14.8-22.3c-3.6-8.2-3.9-16.1-0.7-22.8s9.8-11.6,18.5-14c5-1.4,10.1-2.7,15.1-4
		c7.5-2,15.3-4,22.9-6.2c18.1-5,35.7-3.2,53.5,5.6v-1.1C1182.1,426.6,1164.5,424.8,1146.3,429.8L1146.3,429.8z M468.5,335.9
		L468.5,335.9l0,0.2c-0.3,2.6-1,4.2-2.2,5.1c-0.6,0.4-1.2,0.6-2,0.6c-0.4,0-0.8,0-1.2-0.1c-7.6-1.8-11.9-5.6-13-11.7
		c-0.3-1.6,0.2-3.1,1.1-3.9c0.8-0.7,2-0.8,3.2-0.4c0.8,0.3,1.6,0.6,2.4,0.9C461.8,328.2,466.9,330,468.5,335.9L468.5,335.9z
		 M467.5,336.1c-1.5-5.4-6.1-7-10.9-8.6c-0.8-0.3-1.7-0.6-2.5-0.9c-0.4-0.1-0.7-0.2-1-0.2c-0.5,0-0.8,0.1-1.2,0.4
		c-0.7,0.6-1,1.7-0.8,2.9c1,5.8,4.9,9.2,12.2,10.9c1,0.2,1.8,0.1,2.4-0.3C466.7,339.7,467.2,338.3,467.5,336.1L467.5,336.1z
		 M510.6,89.4c-6,33.6,7.2,58.4,41.6,78c24.8,14.2,53.7,31.9,80.1,55c13.8,12.1,29.7,18.4,45.8,18.4c4.1,0,8.3-0.4,12.4-1.2
		c30.5-6.2,62.7-14.1,91.3-30.2c35.6-20,58.3-41.1,71.3-66.6c12.2-23.8,16.9-52.4,15-92.9c-1-21.8-10.9-38.6-29.5-50h-1.9
		c19.2,11.2,29.4,28,30.4,50c1.8,40.3-2.8,68.8-14.9,92.4c-13,25.2-35.5,46.3-70.9,66.1c-28.4,15.9-60.5,23.9-91,30.1
		c-19.9,4.1-40.3-2-57.3-17c-26.4-23.2-55.4-40.9-80.2-55.1c-33.9-19.4-47-43.9-41.1-77C515.5,49.3,499,20,461.1,0H459
		c0.5,0.3,1.1,0.6,1.6,0.9C498.1,20.7,514.4,49.7,510.6,89.4L510.6,89.4z M24.6,248.3c46.2-1.2,81-22.1,103.6-62.2
		c9.3-16.5,23.5-26.5,43.4-30.5c9.9-2,20-2,29.8-2.1c4.9,0,9.9,0,14.8-0.3c1.7,0,3.4,0,5.1,0.1c20.9,0.3,42.4,0.6,62.3-9.4
		c25.2-12.6,33.1-29.3,27.1-57.7c-2.2-10.5-6.6-20.5-10.9-30.1c-5.2-11.7-10.6-23.9-12-37.1c-0.6-6.2-1.5-12.6-2.5-19h-1
		c1,6.4,1.9,12.9,2.5,19.1c1.4,13.4,6.8,25.6,12,37.4c4.2,9.6,8.6,19.4,10.8,29.9c6,28.2-1.5,44.1-26.5,56.6
		c-19.7,9.9-41.2,9.6-61.9,9.2c-1.7,0-3.4-0.1-5.2-0.1c-4.9,0.3-9.9,0.3-14.8,0.3c-9.8,0-19.9,0.1-30,2.1
		c-20.2,4.1-34.6,14.2-44.1,30.9c-22.4,39.8-57,60.5-102.8,61.7c-9.7,0.2-17.8-0.5-24.6-2.2v1c6,1.5,12.9,2.2,20.9,2.2
		C22.2,248.3,23.4,248.3,24.6,248.3L24.6,248.3z M21,32.2c19.3-8.8,37.8-19.7,55.7-30.2c1.1-0.6,2.2-1.3,3.3-1.9h-2
		c-0.6,0.4-1.2,0.7-1.8,1.1C58.3,11.6,39.8,22.5,20.5,31.3c-3.1,1.4-6.2,4.1-8.1,7C8.8,43.8,4.7,48.8,0,53.6V55
		C5,50,9.4,44.7,13.3,38.9C15.1,36.1,18.1,33.5,21,32.2L21,32.2z M1103.7,403.4c-2.3-2.5-3.4-5.6-3.1-9c0.4-4.7,3.7-9.7,8.7-13.5
		c5.4-4.1,11.8-6,17.2-5c0.9,0.2,1.9,0.3,2.9,0.5c10.3,1.7,23.1,3.9,23.2,15.6c0.1,9.9-9.8,12.8-18.7,15.4c-2.4,0.7-4.7,1.4-6.7,2.1
		c-0.6,0.2-1.3,0.3-2,0.3c-0.6,0-1.2,0-1.7-0.1c-0.7-0.1-1.4-0.1-2-0.1C1113.8,409.5,1107.3,407.3,1103.7,403.4L1103.7,403.4z
		 M1104.4,402.7c3.5,3.8,9.9,5.9,17.4,5.9l0,0c0.6,0,1.2,0,1.7,0.1c1.2,0.1,2.4,0.2,3.3-0.1c2.1-0.8,4.4-1.5,6.8-2.2
		c8.9-2.6,18.1-5.3,17.9-14.4c-0.2-10.9-12.5-13-22.4-14.6c-1-0.2-2-0.3-2.9-0.5c-5.1-0.9-11.3,0.9-16.4,4.9
		c-4.8,3.7-7.9,8.5-8.3,12.9C1101.3,397.6,1102.3,400.4,1104.4,402.7L1104.4,402.7z M401.9,145.4c-12.5-13.7-25.5-27.9-29.9-48
		c-3.5-16.2,1.3-32.6,12.9-43.8c11.3-11,27.4-15.1,43-11.2c13.4,3.4,22.6,7.9,28.9,14.1c7.7,7.6,11,17.7,10.1,30.9
		c-1,26.1-2.9,42.6-6.7,58.7c-2.7,11.4-11,20.2-21.1,22.6c-1.8,0.4-3.5,0.6-5.3,0.6c-7.4,0-14.4-3.7-20.2-10.7
		C409.9,154.1,405.8,149.7,401.9,145.4L401.9,145.4z M373,97.2c4.4,19.9,17.2,33.9,29.6,47.5c3.9,4.3,8,8.8,11.8,13.3
		c6.8,8.3,15.5,11.8,24.4,9.7c9.8-2.3,17.8-10.8,20.4-21.8c3.8-16.1,5.7-32.5,6.7-58.6v0c2.1-29.7-18.2-38.9-38.2-44
		c-3.8-1-7.6-1.4-11.3-1.4c-11.4,0-22.4,4.3-30.7,12.4C374.2,65.3,369.5,81.3,373,97.2L373,97.2z M1032.1,351.6
		c-0.2,2.9-0.4,5.7,0.3,8l0,0.1c0,30.5-8.8,44.6-31.2,50.2c-4.4,1.1-8.6,1.6-12.5,1.6c-6.8,0-12.8-1.7-17.4-5.1
		c-7-5.1-11.1-13.9-11.9-25.5c-1.5-21.4,4.2-37.1,17.2-48c15.6-13,39.7-12.3,51.6,1.6C1032.9,340.2,1032.5,346.2,1032.1,351.6
		L1032.1,351.6z M1031.4,359.8c-0.7-2.5-0.5-5.3-0.3-8.3c0.4-5.4,0.8-11-3.7-16.2c-6-7-15.3-10.6-24.9-10.6c-8.8,0-18,3-25.3,9.1
		c-12.8,10.7-18.3,26.1-16.8,47.2c0.8,11.3,4.7,19.8,11.5,24.7c7.1,5.1,17.1,6.3,29,3.3C1022.8,403.5,1031.4,389.7,1031.4,359.8
		L1031.4,359.8z M322.4,397.6c0.2-1.7,0.4-3.5,0.6-5.2c0.5-3.9,1-7.9,1.5-11.8c3.1-21.6-4.4-43.8-19.6-57.9
		c-13.8-12.8-32.3-17.5-51.9-13.1c-15.8,3.5-32,8.9-52.6,17.4c-2.3,1-4.6,1.9-6.9,2.9c-20.6,8.7-42,17.7-66.1,15.6
		c-5-0.4-10-1.1-14.8-1.7c-12-1.5-23.3-3-33.3-1.3c-3.1,0-5.8,0-8.2,0.1c-4.7,0.1-8.4,0.1-12.1-0.1c-20-1.2-40.7,5.3-59.1,18.2v1.2
		c18.4-13.1,39.1-19.6,59-18.5c3.8,0.2,7.5,0.2,12.1,0.1c2.4,0,5.1-0.1,8.3-0.1c9.9-1.6,21.2-0.2,33.1,1.3c4.9,0.6,9.9,1.3,14.9,1.7
		c24.4,2.1,45.9-7,66.6-15.7c2.3-1,4.6-1.9,6.9-2.9c20.5-8.5,36.6-13.9,52.4-17.4c19.3-4.3,37.4,0.2,51,12.8
		c15,13.9,22.4,35.7,19.3,57c-0.6,3.9-1.1,7.9-1.5,11.8c-0.2,1.7-0.4,3.5-0.6,5.2c-3.7,28.4-24,45-42.9,58.4
		c-15.9,11.3-26.1,24.9-31.1,41.8c-0.2,0.8-0.5,1.6-0.7,2.5h1c0.2-0.7,0.4-1.5,0.6-2.2c5-16.6,15-30.1,30.7-41.2
		C298.2,443.2,318.7,426.4,322.4,397.6L322.4,397.6z M1168.8,0h-1.8c12.8,8.1,23.1,18.2,31.5,30.8c0.5,0.8,1,1.6,1.5,2.4v-1.9
		c-0.2-0.4-0.4-0.7-0.7-1.1C1191.2,18,1181.1,8,1168.8,0L1168.8,0z M1175.3,101.3c-7.6,2.8-16.1,5-25.4,6.7
		c-5.8,1.1-11.6,2.2-17.3,3.3c-21.4,4.1-43.6,8.4-65.8,9.1c-32.7,1-55-15.4-66.3-48.6C992.2,47,1000.2,18.2,1020,0h-1.4
		c-19.5,18.5-27.3,47.3-18.9,72.1c5.6,16.5,14.1,29.1,25.2,37.4c10.7,7.9,23.9,12,39.4,12c0.9,0,1.8,0,2.7,0
		c22.3-0.7,44.5-4.9,65.9-9.1c5.7-1.1,11.5-2.2,17.3-3.3c9.3-1.7,17.9-4,25.6-6.7c10.2-3.7,18.6-9.7,24.3-17.2v-1.7
		C1194.3,91.2,1185.8,97.5,1175.3,101.3z M503,21.9c14.6,21.3,18.4,46.1,20.4,69.7c1.7,20.8,4.4,39.1,20.2,52.8
		c11.5,9.9,24.7,18.8,40.6,27.1c5.7,3,11.5,5.9,17.2,8.7c18.7,9.3,38,18.9,55,32.1c9.9,7.7,21.7,11.9,32.9,11.9
		c1.5,0,3.1-0.1,4.6-0.2c40.2-4.3,71.5-14.3,98.5-31.6c23.5-15.1,41.4-32.3,53.2-51.4c12.5-20.2,18-42.4,16.5-65.9
		C863.4,37,852.1,13.5,825.8,0h-2.2c27.2,13.1,38.9,36.5,37.7,75.1c1.5,23.4-4,45.4-16.4,65.4c-11.7,18.9-29.4,36.1-52.8,51.1
		c-26.9,17.2-58,27.2-98,31.4c-12.3,1.3-25.8-2.9-36.8-11.4c-17.1-13.2-36.5-22.9-55.2-32.2c-5.7-2.8-11.5-5.7-17.2-8.7
		c-15.8-8.2-29-17-40.4-26.9c-15.5-13.4-18.2-31.6-19.9-52.1c-2-23.8-5.8-48.8-20.6-70.2C498.8,14,492.5,7.1,484.2,0h-1.5
		C491.3,7.3,497.8,14.3,503,21.9L503,21.9z M69.8,25.5C87.1,13.4,105.9,5,127.1,0H123c-19.7,5.2-37.4,13.3-53.7,24.7
		C58.8,32,48.6,39.8,38.6,47.5C26.2,57,13.3,66.8,0,75.7v1.2c13.6-8.9,26.6-18.9,39.2-28.6C49.1,40.6,59.4,32.8,69.8,25.5L69.8,25.5
		z M68.5,228.9c22.1-9.6,38.9-27.7,47.3-51.1c7.3-20.2,22.7-32.5,44.6-35.6c10.9-1.5,21.8-1.7,32.4-1.8c4.4-0.1,9.1-0.1,13.6-0.3
		c5-0.2,10-0.3,14.9-0.4c10.2-0.1,20.8-0.3,31.2-1.9c19.5-3.1,33.8-11.9,40.5-24.7c6.5-12.5,5.6-28-2.7-44.8l-1.9-3.9
		c-8-16.2-16.2-32.9-20.8-50.8C266.2,8.2,263.6,3.6,260,0h-1.4c3.9,3.5,6.7,8.3,8.1,13.9c4.7,18,12.9,34.8,20.9,51l1.9,3.9
		c8.1,16.5,9,31.7,2.7,43.9c-6.5,12.5-20.6,21.1-39.7,24.2c-10.4,1.7-20.9,1.8-31.1,1.9c-4.9,0.1-9.9,0.1-14.9,0.4
		c-4.5,0.2-9.1,0.2-13.6,0.3c-10.6,0.2-21.6,0.3-32.6,1.8c-22.3,3.1-38,15.6-45.4,36.2c-8.3,23.1-24.9,41-46.8,50.5
		c-21.2,9.2-45.2,9.6-68.2,1.4v1.1c10.9,3.8,21.9,5.8,32.8,5.8C45.1,236.2,57.2,233.8,68.5,228.9L68.5,228.9z M397.1,107.5
		c-8.3-12.7-8.2-21.2,0.4-31.4c7.6-9,18.5-11.6,29.1-6.8c12.9,5.7,19.1,14.2,18.5,25.3c-0.1,2.2-0.1,4.5-0.1,7.6c0,1.7,0,3.7,0,6.1
		c0,0.6,0,1.1,0.1,1.7c0.3,7.1,0.8,16.8-10.7,21.4c-2,0.8-4,1.2-6.1,1.2C418.7,132.4,407.8,123.8,397.1,107.5L397.1,107.5z
		 M397.9,106.9c12.7,19.4,25.5,27.8,36.2,23.4c10.8-4.4,10.4-13.7,10.1-20.4c0-0.6,0-1.2-0.1-1.8v0c0-2.4,0-4.3,0-6.1
		c0-3.1,0-5.4,0.1-7.7c0.5-10.6-5.5-18.8-17.9-24.4c-3.4-1.5-6.8-2.2-10.1-2.2c-6.7,0-13,3-17.8,8.8
		C390,86.4,389.9,94.6,397.9,106.9L397.9,106.9z M271.9,442.5c18-13.1,41.6-34.1,38.3-65c0-20.4-6-36-17.5-44.9
		c-10.9-8.5-26-10.6-43.9-6.2c-25.6,6.4-49.4,16.1-70.7,28.9c-12.6,7.6-26.5,10.6-41.3,9c-29.3-3.1-64-5.6-98.7-0.7
		c-11.8,1.7-20.9,5-28.4,10.5c-3.5,2.5-6.8,5.3-9.9,8.3v1.4c3.2-3.2,6.7-6.2,10.4-8.9c7.4-5.4,16.2-8.7,27.9-10.3
		c34.6-5,69.1-2.5,98.4,0.7c15.1,1.6,29.1-1.5,41.9-9.2c21.2-12.8,44.9-22.5,70.4-28.8c17.6-4.4,32.4-2.3,43,6
		c11.2,8.8,17.1,24,17.1,44.2c1.5,14.6-0.7,37.1-37.9,64.2c-23.1,16.8-37,36-42.2,58.4h1C235.4,478,249,459.1,271.9,442.5
		L271.9,442.5z M1012.9,50.7c0,20.7,6.4,37.3,18.5,48.1c9.3,8.3,21.5,12.5,35.7,12.5c3,0,6.1-0.2,9.2-0.6c24-2.9,47.2-6.6,68.8-11
		c17.5-3.6,32.8-7.7,41.7-22.9c6-10.3,7.8-22.7,4.9-35.1c-2.9-12.3-9.9-22.9-19.9-29.8c-6.5-4.5-13.3-8.4-20.6-11.9h-2.3
		c8,3.7,15.3,7.9,22.3,12.8c9.8,6.8,16.7,17.1,19.5,29.2c2.8,12.1,1.1,24.3-4.8,34.4c-8.7,14.8-23.7,18.9-41,22.4
		c-21.6,4.4-44.7,8.1-68.7,10.9c-17.8,2.2-33.1-1.9-44.2-11.7c-11.9-10.5-18.1-26.9-18.1-47.4c-2.7-16.7,7.4-36.1,26-50.6h-1.6
		C1020.1,14.6,1010.2,34,1012.9,50.7L1012.9,50.7z M531.4,78.7c5.6,42,27.7,70.9,65.5,85.9c22.6,8.9,45.9,20.9,71.3,36.8
		c10.4,6.5,22.9,9.9,36.4,9.9c2.3,0,4.7-0.1,7.1-0.3c26.6-2.2,49.8-9.6,71.1-22.6c37.9-23.2,76.1-55.2,72.1-116.8
		c4.5-31.5-9-54.3-42.4-71.5h-2.2c34.4,17.1,48.2,39.8,43.7,71.4v0.1v0.1c4,61.1-33.9,92.9-71.6,115.9
		c-21.1,12.9-44.2,20.3-70.6,22.5c-16,1.4-30.8-1.9-42.9-9.4c-25.5-15.8-48.8-27.9-71.4-36.8c-19-7.5-34.1-18.6-44.9-32.9
		c-10.5-14-17.2-31.5-20-52.1c-1.9-14.2-5.8-28.1-9.7-41c-4.5-14.7-12.6-27-20.4-37.6h-1.2c7.9,10.6,16.1,23,20.6,37.9
		C525.7,50.8,529.6,64.6,531.4,78.7L531.4,78.7z M37.3,222.2c21.3,0,40.1-10.5,51.7-29.7c6.8-11.3,8.4-24.3,8.9-34.4
		c0.7-11.4,5.6-21.3,14-28c9-7.2,20.9-10.1,33.4-8c11.2,1.8,22.5,2,33.4,2.2l2.1,0c22.8,0.2,47.2-0.6,70.7-6.8
		c10.8-2.9,18.1-8,21.5-15.2c3.5-7.3,2.9-16.4-1.9-26.9c-2.7-6.1-5.9-12.1-8.9-17.9c-3.8-7.3-7.7-14.8-10.8-22.4
		c-6.5-15.8-18.8-23.8-38.8-25.4c-16.4-1.2-32.9,0.2-48.9,1.6c-3,0.3-5.9,0.5-8.9,0.8c-31.8,2.6-56.5,11.2-77.5,26.9
		c-7.4,5.6-14.7,11.5-21.8,17.3c-14,11.4-28.4,23.2-44.5,32.3c-3.6,2-7.3,3.9-11.1,5.8v1.1c4-2,7.8-3.9,11.6-6.1
		c16.2-9.1,30.6-21,44.6-32.4c7.1-5.8,14.3-11.8,21.8-17.3c20.9-15.6,45.3-24.1,77-26.7c3-0.2,6-0.5,8.9-0.8
		c16-1.4,32.5-2.9,48.8-1.6c19.6,1.5,31.7,9.3,38,24.7c3.2,7.7,7.1,15.2,10.9,22.5c3,5.8,6.1,11.8,8.9,17.8c4.6,10.2,5.2,19,1.9,26
		c-3.3,7-10.3,11.9-20.9,14.7c-23.4,6.2-47.7,6.9-70.4,6.8l-2.1,0c-10.9-0.2-22.1-0.3-33.3-2.2c-12.8-2.1-24.9,0.8-34.2,8.2
		c-8.6,6.9-13.7,17.1-14.4,28.7c-0.6,9.9-2.1,22.8-8.8,33.9c-7.5,12.5-18.2,21.5-30.9,26c-12.7,4.5-27.1,4.4-41.7-0.2
		c-5.2-1.7-10.4-3.8-15.6-6.4v1.1c5.1,2.5,10.1,4.6,15.2,6.2C22.8,221,30.2,222.1,37.3,222.2L37.3,222.2z M250.6,438.4
		c7.8-7.9,15.9-16,24.1-23.8c9.2-8.7,15.3-19.5,18.6-33.1c2.4-9.9,0.6-19.5-5.1-27c-5.8-7.5-15-11.8-25.3-12
		c-20.3-0.3-37.5,8.8-53.1,18.7c-31.1,19.6-58.6,31.3-92.3,24.1c-18.2-3.9-36.1,1.1-53.4,5.9c-5.9,1.6-11.9,3.3-17.9,4.6
		c-16.8,3.7-29.3,13.5-36.2,28.3c-2.8,6.1-6.2,12.4-9.9,18.9v2c4.2-7.1,7.8-13.9,10.9-20.5c6.8-14.5,19.1-24.1,35.5-27.7
		c6-1.3,12.1-3,18-4.7c17.2-4.8,34.9-9.8,52.9-5.9c34,7.2,61.8-4.5,93.1-24.2c15.5-9.8,32.6-18.9,52.6-18.5
		c10,0.2,18.9,4.4,24.5,11.6c5.6,7.2,7.3,16.5,5,26.1c-3.3,13.4-9.3,24.1-18.3,32.6c-8.2,7.8-16.3,15.9-24.1,23.8
		c-4.9,5-10,10.1-15.1,15.1c-12.9,12.6-21,28.5-24.2,47.2h1c3.2-18.4,11.2-34,23.9-46.5C240.6,448.5,245.7,443.4,250.6,438.4
		L250.6,438.4z M1034.5,78c7.9,16.6,22.7,19.8,38.1,19.8c1.7,0,3.4,0,5.1-0.1c0.6,0,1.2,0,1.8,0h0.9c2.5-0.1,5-0.3,7.6-0.4
		c21.3-1.2,43.2-2.3,64-10c11.7-4.3,25.6-11.5,28.3-29c2.6-16.5-3.3-30.6-17.6-42C1152.2,8.1,1140.1,3.7,1128,0h-3.4
		c13,4,26.3,8.2,37.4,17.1c14,11.2,19.8,25,17.2,41.1c-2.1,13.2-10.7,22-27.7,28.2c-20.6,7.6-42.5,8.8-63.7,9.9
		c-2.5,0.1-5.1,0.3-7.5,0.4h-0.8c-0.6,0-1.2,0-1.8,0c-16.9,0.6-33.8-1.3-42.3-19.2c-10-21.1-6.5-45.5,8.9-62.2
		c6-6.5,12.4-11.7,18.9-15.4h-1.9c-6.1,3.7-12.1,8.6-17.7,14.8C1027.9,31.8,1024.3,56.6,1034.5,78L1034.5,78z M611.8,158.4l2.4,0.9
		c18.8,7.5,38.3,15.2,56.3,25.8c15.1,8.9,29.4,13.3,42.5,13.3c1.8,0,3.6-0.1,5.4-0.3l0,0c21.1,0,46.9-8.6,70.7-23.6
		c24.3-15.3,42.3-34.8,49.6-53.6c22.8-59.1,9.2-99.5-40.7-120.1c-0.7-0.3-1.5-0.6-2.2-0.9h-2.6c1.5,0.6,3,1.3,4.4,1.9
		c49.2,20.3,62.8,60.3,40.1,118.8c-7.2,18.6-25.1,38-49.2,53.2c-23.3,14.7-49.5,23.4-70.2,23.4c-14.4,1.4-30.3-2.9-47.4-12.9
		c-18-10.6-37.6-18.3-56.5-25.8l-2.4-0.9c-33.7-13.4-55-35.5-65-67.5c-8.3-26.4-15.4-55.1-22.4-90h-1c7,35,14.2,63.8,22.5,90.3
		C556.4,122.6,577.8,144.9,611.8,158.4L611.8,158.4z M36.4,208.8c7.6,0,14.8-2,21.1-6c12.2-7.7,19.4-22.1,19.9-39.5
		c0.1-4.7,0.1-9.5,0.1-14.1c0-3.6-0.1-7.3,0-11c0.3-19.9,9.5-31.2,30-36.3c11.3-2.9,22.1-0.6,32.6,1.5c2.1,0.4,4.1,0.8,6.2,1.2
		c34.8,6.5,62.6,3.4,87.5-9.7c7.9-4.2,11.1-9.7,10.1-17.3c-2.8-22.1-22.2-43.9-44.3-49.5c-9.7-2.5-17.4-3.3-24.2-2.7
		c-13.3-0.8-25.9,1.2-38.1,3.3c-1.5,0.2-3,0.5-4.5,0.7c-13.8,2.2-33.2,8.2-61.4,34.6c-17.5,16.5-37.3,33-62.9,41.9
		c-2.8,1-5.6,2.2-8.5,3.6v1.1c3-1.5,5.9-2.8,8.8-3.8C34.6,98,54.4,81.4,72,64.8c15.6-14.7,35-30.2,60.8-34.4c1.5-0.2,3-0.5,4.5-0.7
		c12.2-2,24.7-4.1,38-3.2c6.8-0.7,14.4,0.2,23.9,2.6c21.7,5.6,40.8,27,43.5,48.7c0.9,7.3-2.1,12.3-9.6,16.3
		c-24.7,13-52.3,16.1-86.8,9.6c-2.1-0.4-4.1-0.8-6.1-1.2c-10.6-2.2-21.5-4.4-33.1-1.5c-20.7,5.2-30.4,17.1-30.7,37.3
		c-0.1,3.7,0,7.4,0,11c0,4.6,0.1,9.4-0.1,14.1C76,180.4,68.9,194.5,57,202c-11.8,7.4-26.6,7.7-41.9,0.9c-5.3-2.4-10.4-5.1-15.1-8.1
		v1.2c4.6,2.9,9.6,5.5,14.7,7.8C22.1,207.1,29.5,208.8,36.4,208.8L36.4,208.8z M200.6,413.8c-10.1-0.6-20.1,1.4-28.9,3.1
		c-6.1,1.2-12.4,2-18.5,2.8c-18.1,2.3-36.9,4.7-52.8,17.8c-18.9,15.5-42.1,24.7-64.2,32.7C23.1,475,11,481.6,0,489.9v1.2
		c11.1-8.5,23.3-15.2,36.5-19.9c22.2-8.1,45.5-17.3,64.5-32.9c15.7-12.9,34.3-15.2,52.3-17.6c6.1-0.8,12.5-1.6,18.6-2.8
		c8.7-1.7,18.6-3.7,28.6-3.1c8.1,0.5,11.1,3.8,10.9,12c-0.2,7-1.8,12.8-4.7,17.4c-10.3,16.4-16.8,34.6-19.7,55.7h1
		c2.9-20.9,9.3-39,19.5-55.2c3-4.7,4.6-10.8,4.8-17.9C212.6,418.2,209.1,414.3,200.6,413.8L200.6,413.8z M1090.2,7.3
		c20.9-1.8,40.8,3.1,59.3,14.4c11.9,7.3,16.8,18,15.2,32.9c-1.5,12.9-11.4,17.6-21.4,21.4c-10.8,4-22,6.2-32.3,6.2
		c-2,0-4-0.1-5.9-0.2c-1.9,0-3.6,0-5.1,0c-2.9,0-5.2,0-7.5,0c-22.2-0.7-38.9-12.3-39.8-27.7C1051.2,29.4,1067.3,9.2,1090.2,7.3
		L1090.2,7.3z M1053.6,54.1c0.9,14.9,17.2,26.1,38.8,26.8c2.3,0.1,4.6,0.1,7.4,0c1.5,0,3.2,0,5.1,0h0c11.7,1,25.1-1.1,37.8-5.9
		c9.8-3.7,19.4-8.3,20.8-20.6c1.6-14.4-3.2-24.9-14.7-31.9c-18.3-11.2-38.1-16-58.7-14.3C1068,10.1,1052.2,29.8,1053.6,54.1
		L1053.6,54.1z M553.1,81.9c13.3,33.9,32.2,54.8,59.5,65.7c22.1,8.9,45.5,18.5,67.4,29.9c15,7.8,29.6,11.6,44,11.6
		c14.8,0,29.5-4.1,44.2-12.2c31.6-17.5,65.8-40,72.3-85c5.8-40.2-6.2-65.8-37.8-80.5c-7.8-3.6-15.8-7.2-23.6-10.7
		c-0.5-0.2-1-0.4-1.5-0.7h-2.4c1.2,0.5,2.3,1,3.5,1.6c7.7,3.5,15.7,7.1,23.6,10.7c31.1,14.4,43,39.7,37.2,79.4
		c-3.4,23.4-12,51.1-71.8,84.3c-28.8,15.9-57.3,16.1-87.3,0.6c-22-11.4-45.4-21-67.5-29.9c-27-10.9-45.7-31.6-59-65.2
		c-6.5-16.6-10.9-34.9-13.5-56c-1.4-11.3-0.1-19.3,4-25.5h-1.2c-4,6.3-5.2,14.4-3.8,25.6C542.2,46.8,546.6,65.2,553.1,81.9
		L553.1,81.9z M30.4,184.9L30.4,184.9c12.1,0,20.5-11,20.5-26.8c0-11.1-3.2-20.3-9-26c-4.2-4.1-9.6-6.3-15.7-6.2
		C17.4,126,6.9,131.8,0,138.8v1.5c6.7-7.2,17.5-13.3,26.3-13.5c0.1,0,0.3,0,0.4,0c5.6,0,10.7,2,14.6,5.9c5.6,5.5,8.7,14.5,8.7,25.3
		c0,15.2-8,25.8-19.5,25.8c-8.4,0-19.7-5.8-28-14.5c-0.9-0.9-1.7-1.8-2.4-2.8v1.6c0.6,0.6,1.1,1.3,1.7,1.9
		C8.8,177.4,20.4,184.9,30.4,184.9z M129.2,72.2c-4.1-2.3-6.2-4.9-6.3-7.6c-0.1-2.8,1.8-5.5,5.8-8.2c14.6-10,38.8-9.2,52.8,1.6
		c4.4,3.4,6.6,7.1,6.3,10.6c-0.3,3.5-3,6.8-7.8,9.4c-4.9,2.7-9.7,4-14.6,4c-0.7,0-1.4,0-2.1-0.1h0C152.7,80.7,140.4,78.6,129.2,72.2
		L129.2,72.2z M129.7,71.4c11.1,6.2,23.2,8.4,33.6,9.6c5.4,0.4,10.8-0.8,16.2-3.8c4.5-2.5,7.1-5.5,7.3-8.6c0.2-3.2-1.8-6.5-5.9-9.8
		c-13.7-10.6-37.3-11.3-51.6-1.6c-3.7,2.5-5.5,5-5.4,7.4C124,67,125.9,69.2,129.7,71.4L129.7,71.4z M112.7,479.5
		c-5.7,2.2-11.4,4.6-17,6.9c-11.5,4.8-23.2,9.6-35.3,13.6h3.1c11.1-3.8,21.9-8.3,32.5-12.7c5.6-2.3,11.3-4.7,17-6.9
		c19.1-7.5,30-6.2,37.6,4.8c2.9,4.1,4.5,8.9,5,14.8h1c-0.6-6.1-2.2-11.1-5.2-15.4C143.6,473.3,132,471.8,112.7,479.5z M1088.6,58.2
		c-5.8-5.5-8.2-13.2-6.2-20.1c1.8-6,6.6-10.3,13.3-11.6c11.6-2.3,25.2-3.8,37.5,3.2c6.9,3.9,13.6,8.5,13,18.5
		c-0.6,10-8,12.7-15.2,15.4l-0.8,0.3c-5.3,2-10.2,2.4-13.5,2.4c-0.7,0-1.2,0-1.7,0C1104.2,66.1,1095.6,64.8,1088.6,58.2L1088.6,58.2
		z M1089.3,57.4c6.7,6.4,15.1,7.7,25.7,7.7h0c2.3,0.1,8.4,0.1,14.8-2.2l0.8-0.3c7.2-2.7,14-5.2,14.5-14.5
		c0.5-9.4-5.6-13.7-12.5-17.5c-12.1-6.8-25.4-5.4-36.8-3.1c-6.3,1.3-10.8,5.2-12.5,10.9C1081.5,44.8,1083.8,52.1,1089.3,57.4
		L1089.3,57.4z M613.8,136.1c10.5,5.9,22,10,33.1,14c10.9,3.9,22.2,8,32.5,13.7c16.3,9,32.2,13.5,47.8,13.5s32.5-4.9,48.7-14.7
		c26.9-16.3,57.8-40.9,58.2-86.8C834,52,824.4,34.1,804.7,21c-10.5-7-22.1-11.6-33.4-16c-4.1-1.6-8.3-3.3-12.4-5.1h-2.6
		c4.8,2,9.7,4.1,14.6,6c11.2,4.4,22.7,8.9,33.2,15.9c19.3,12.9,28.8,30.5,28.9,53.9c-0.2,19.5-5.7,36.1-16.7,51
		c-9.3,12.5-22.3,23.6-41.1,35c-31.3,19-62.5,19.4-95.5,1.2c-10.4-5.7-21.7-9.8-32.7-13.8c-11-4-22.5-8.1-32.9-13.9
		c-37-20.6-56.7-53.6-60.4-101.1c-1.2-14.9,5.5-26.1,20.2-34.2H572c-14,8.2-20.3,19.4-19.1,34.2C556.6,82.1,576.5,115.4,613.8,136.1
		L613.8,136.1z M563.3,38.8c0.2,36.1,17.5,64.7,52.9,87.6c12.5,8.1,26.7,12.9,40.5,17.6c10.9,3.7,22.1,7.6,32.4,13
		c13.6,7.2,26.8,10.7,40,10.7c15.3,0,30.6-4.8,46.5-14.4c25-15.1,50.6-35.8,50.8-75.2c-0.4-20.3-8.1-36-23.4-48.1
		c-15.6-12.2-33.9-18.9-51.7-25.3c-4.2-1.5-8.4-3.1-12.6-4.7h-2.8c5,2,10.1,3.8,15.1,5.6c17.7,6.4,35.9,13.1,51.4,25.2
		c15.1,11.8,22.6,27.3,23,47.3c-0.3,38.9-25.6,59.4-50.4,74.3c-29.4,17.7-56.5,18.9-85.5,3.6c-10.3-5.4-21.6-9.3-32.5-13
		c-13.7-4.7-27.9-9.5-40.2-17.5c-35.1-22.7-52.2-51.1-52.4-86.8c-0.1-13.7,6.3-23.8,19.1-30c8-3.9,16.2-6.8,24.6-8.7h-4.1
		c-7.1,1.9-14.1,4.5-21,7.8C570,14.2,563.2,24.8,563.3,38.8L563.3,38.8z M577,30.2c-5.3,9.6-4.6,22.7,2.2,38.9
		c12.6,29.8,33.8,50.2,63.2,60.6c6.3,2.2,12.8,4.4,19.1,6.4c13.1,4.3,26.6,8.7,39.3,14.3c10.6,4.7,21,7,31.5,7
		c14.7,0,29.2-4.6,44.1-13.9c27.6-17.3,40.9-38.3,41.9-66.3v0v0c-1.1-19.2-9.2-34-23.9-43.8C776.8,21.9,757.1,15,738,8.3
		c-3.4-1.2-6.8-2.4-10.2-3.6c-6-2.2-12-3.7-17.8-4.7h-9c8.7,0.5,17.5,2.4,26.5,5.6c3.4,1.2,6.8,2.4,10.3,3.6
		c19,6.7,38.8,13.6,56,25.1c14.5,9.6,22.4,24.1,23.5,43c-0.9,27.6-14.1,48.3-41.4,65.4c-25.1,15.7-49.5,17.9-74.6,6.8
		c-12.8-5.6-26.3-10.1-39.4-14.4c-6.3-2.1-12.8-4.2-19.1-6.4c-29-10.3-50.1-30.5-62.6-60c-6.7-15.9-7.5-28.7-2.3-38
		c5.6-10.1,18.1-16.6,38.1-19.8c7.6-1.2,15.3-2.1,22.8-2.9c12.2-1.4,24.9-2.8,37.1-5.7c4.9-1.2,9.9-1.9,14.8-2.2h-8.8
		c-2.1,0.3-4.2,0.8-6.2,1.3c-12.1,2.9-24.8,4.3-36.9,5.7c-7.5,0.8-15.3,1.7-22.9,2.9C595.5,13.2,582.8,19.8,577,30.2L577,30.2z
		 M629.9,22.7c21.7-4.7,44.2-9.5,66.5-12.1c17.7-2.1,34.6,4.6,50.9,11.1c2.6,1,5.1,2,7.7,3c7.3,2.8,14.3,6.7,21.1,10.5
		c2,1.1,4,2.2,6,3.3c13.8,7.5,22.7,20.8,24.4,36.5c2,17.8-5.3,35.8-19.4,48.2c-15.9,13.9-33.5,21.1-55.6,22.5h-0.1l-0.1,0
		c-10.7-3.8-21.9-6.9-33.7-10.1c-27.4-7.5-55.8-15.2-80.3-33.6c-12.5-9.3-21.2-23.6-26.7-43.5c-1.8-6.5-0.9-13,2.6-18.7
		c4.3-7,12-12.1,21.7-14.1C619.9,24.8,624.9,23.8,629.9,22.7L629.9,22.7z M630.1,23.7c-5,1.1-10,2.1-15,3.2c-9.4,2-16.9,6.8-21,13.6
		c-3.3,5.5-4.2,11.6-2.5,17.9c5.4,19.7,14,33.8,26.3,43c24.3,18.3,52.6,26,80,33.4c11.8,3.2,23,6.2,33.7,10.1
		c21.8-1.4,39.2-8.5,54.9-22.2c13.9-12.2,21-29.9,19.1-47.3c-1.7-15.4-10.4-28.4-23.9-35.8c-2-1.1-4-2.2-6-3.3
		c-6.7-3.8-13.7-7.7-20.9-10.5c-2.5-1-5.1-2-7.7-3c-14.2-5.6-28.8-11.5-43.9-11.5c-2.2,0-4.4,0.1-6.6,0.4
		C674.2,14.2,651.8,19,630.1,23.7L630.1,23.7z M619.8,43.8c21.4-13.7,49.4-21,78.7-20.4c29.2,0.6,56.7,8.9,77.5,23.3
		c11.4,8,17.9,19.5,20.4,36.2V83v0.1c-1.5,15.7-10.2,30.2-24.1,39.8c-9.8,6.8-21.1,10.3-32.4,10.3c-4.8,0-9.6-0.6-14.3-1.9
		c-5.5-1.5-11.1-3-16.6-4.4c-20.1-5.3-40.9-10.7-60.5-18.8c-18.7-7.7-31-20.4-37.8-38.7C606.8,58.9,610,50.1,619.8,43.8L619.8,43.8z
		 M611.6,69c6.7,18.1,18.8,30.6,37.2,38.1c19.6,8.1,40.3,13.5,60.4,18.8c5.4,1.4,11.1,2.9,16.6,4.4c15.5,4.2,32.2,1.2,45.9-8.2
		c13.4-9.3,22.2-23.9,23.7-39c-2.5-16.4-8.8-27.7-20-35.5c-20.6-14.3-47.9-22.5-76.9-23.1c-1.1,0-2.2,0-3.3,0
		c-27.9,0-54.3,7.1-74.8,20.2C611,50.7,608,59.1,611.6,69L611.6,69z M705.3,72.2c2.1-6.6,9.9-8.3,15.1-9.3c0.7-0.1,1.3-0.3,1.8-0.4
		h0.1c9.5-0.3,15.8,3.4,21.9,6.9c0.8,0.5,1.7,1,2.5,1.4c8.4,4.7,11.3,10.4,8.4,16.4c-3.1,6.3-8.4,9.8-14.6,9.8
		c-1.8,0-3.8-0.3-5.7-0.9c-5.8-1.9-11.5-4.6-17-7.1C709.8,85.1,702.7,80.4,705.3,72.2L705.3,72.2z M718.3,88
		c5.4,2.6,11.1,5.2,16.8,7.1c8,2.6,15.3-0.6,19.1-8.4c2.7-5.5,0-10.6-8-15.1c-0.8-0.5-1.7-0.9-2.5-1.4c-5.9-3.4-12.1-7-21.3-6.8
		c-0.6,0.1-1.2,0.2-1.8,0.4c-5.2,1.1-12.4,2.6-14.4,8.7C703.9,80,710.7,84.4,718.3,88L718.3,88z"/>
</g>
</svg>
