<?xml version="1.0" encoding="UTF-8"?>
<svg id="Calque_2" data-name="Calque 2" xmlns="http://www.w3.org/2000/svg" viewBox="0 0 27.01 18.56">
  <defs>
    <style>
      .cls-1 {
        fill: #f2f0eb;
      }
    </style>
  </defs>
  <g id="Layer_1" data-name="Layer 1">
    <g>
      <path class="cls-1" d="m4.71,10.79c-.05-.02-.08-.17-.04-.21.01-.02,0-.04-.02-.04-.02,0-.05-.08-.06-.16-.01-.08-.04-.15-.07-.16-.03,0-.03-.05,0-.09.03-.05.02-.1-.04-.2-.05-.07-.07-.14-.05-.15.02-.01.02-.05,0-.07-.02-.03-.04-.03-.07,0-.02.03-.03.07-.02.1.01.03,0,.03-.03,0-.04-.03-.03-.06.02-.12.08-.1.08-.32,0-.39-.04-.03-.05-.08-.03-.12.02-.04,0-.1-.02-.14-.05-.08-.09-.25-.05-.21.01.01,0-.04-.02-.12-.02-.07-.03-.15-.02-.16s0-.04-.02-.06-.03-.04,0-.05c.02,0,.02-.04,0-.08s-.03-.08-.02-.09,0-.04-.01-.06-.05-.13-.06-.24c-.02-.19-.04-.24-.13-.3-.01,0-.01-.04,0-.08.02-.06,0-.12-.12-.48-.03-.07-.06-.2-.07-.29-.01-.08-.03-.16-.05-.17s-.03-.11-.03-.22c-.01-.2-.05-.28-.1-.23-.01.02-.04.01-.07,0-.05-.04-.03-.08.05-.09.08,0,.08-.24,0-.27-.06-.03-.1-.3-.05-.36.01-.02.01-.04,0-.05s-.03,0-.04.02c0,.02-.02.03-.04.01-.06-.05-.08-.18-.03-.24.05-.06.02-.3-.05-.35-.02-.02-.04-.07-.04-.11,0-.04-.02-.09-.05-.11-.09-.06-.09-.08-.01-.1.07-.01.07-.02.02-.03-.06-.02-.08-.14-.03-.15.05,0-.01-.04-.08-.05-.08-.01-.14-.2-.07-.23.03-.02.03-.04,0-.07-.03-.02-.07-.11-.09-.2-.03-.09-.06-.16-.08-.16-.02,0-.02.02,0,.03.04.03,0,.19-.06.21-.02,0-.04-.03-.05-.08-.01-.07-.02-.08-.05-.05-.02.03-.03.02-.03-.01,0-.03-.02-.04-.09,0-.09.04-.09.05-.02.19.04.08.06.14.05.13-.04-.03-.05.2,0,.23.02.02.03.05.02.06s0,.04,0,.06.04.07.04.11c0,.05.04.11.08.15.05.05.05.06,0,.07-.05,0-.06.04-.04.15.01.08.04.15.06.16.02.02.03.1.04.2s.02.19.03.2c.04.05.08.41.06.45-.02.03.03.2.14.44.02.05.02.1,0,.12-.02.02-.01.04.01.04.05,0,.07.2.02.26-.02.02-.02.08,0,.12.02.04.04.11.04.15,0,.04.02.1.05.12s.05.1.04.18c0,.07,0,.15.03.17.05.05.08.2.04.25-.02.02,0,.08.03.14.03.06.05.12.03.13s0,.04.02.06.04.06.05.1c0,.04.02.09.04.13.02.03.02.08,0,.1-.02.03,0,.06.04.09.08.05.09.11.02.2-.02.03-.03.06-.02.08.01.02.02.06.02.11,0,.05.02.14.05.21.03.07.05.15.03.19-.01.03.02.17.08.31.06.14.09.28.08.31-.02.04,0,.08.03.09.04.02.07.09.08.23,0,.13.04.21.07.22.04.02.04.03-.02.08-.06.05-.07.08-.05.13.04.09.08.13.06.05-.01-.03,0-.06.01-.06.02,0,.03.03.04.08,0,.04.03.12.06.17.03.05.03.11,0,.14-.06.07.02.28.11.28.05,0,.05,0,.01.02-.07.02-.05.17.02.24.03.03.05.07.04.08-.05.07-.04.17.03.25.05.05.06.09.04.11-.02.02-.02.06,0,.09s.04.07.02.09,0,.04.02.06c.03.02.03.05,0,.06-.03.02-.03.05,0,.11.03.04.06.16.07.25,0,.09.03.2.06.24.02.04.03.08.02.09s0,.1.04.18c.03.09.05.17.04.18s0,.03.03.04.05.05.05.1c0,.09.14.59.23.8.03.07.07.19.09.27.02.08.05.14.07.14.02,0,.02.01,0,.03s-.04.02-.05,0-.04,0-.05.03c-.01.03.02.09.06.12s.07.08.06.09,0,.07.04.13c.03.06.05.11.04.13-.03.04.05.2.14.27.04.03.06.07.05.08s.01.08.05.14c.04.06.06.13.05.14s0,.04.01.06.03.07.02.11c-.02.12.07.3.15.31.05,0,.06.02.03.06s0,.07.06.13c.05.05.09.09.08.11-.02.03.07.18.15.24.03.02.03.04.01.05-.04.01-.03.02.07.12.04.04.1.11.14.16.07.09.08.09.14.02.03-.04.08-.06.09-.05s.05,0,.07-.03c.07-.11.13-.15.14-.11,0,.03,0,.05-.05.05-.05,0-.06.02-.02.05.03.02.02.05-.03.09-.04.03-.06.08-.05.1,0,.02.02.04.04.02.12-.11.15-.14.2-.14h0s.07-.03.09-.06c.09-.17.06-.29-.13-.51-.05-.06-.08-.12-.07-.13s0-.05-.03-.07-.05-.06-.05-.09c0-.02-.04-.08-.1-.14-.08-.07-.13-.15-.18-.34-.04-.14-.1-.27-.13-.3-.03-.03-.06-.07-.05-.1,0-.02-.02-.05-.05-.06-.03-.01-.04-.04,0-.07.05-.06.01-.21-.09-.34-.04-.05-.06-.11-.05-.12s0-.03-.02-.03c-.02,0-.04-.02-.03-.03.01-.05-.07-.36-.11-.39-.02-.02-.04-.1-.05-.18s-.03-.17-.05-.19c-.05-.05-.15-.39-.12-.46.01-.03,0-.08-.04-.11s-.05-.07-.04-.1c.01-.03-.02-.11-.06-.17-.1-.15-.17-.38-.14-.39.02,0,0-.07-.04-.15s-.05-.16-.04-.18.02-.05,0-.06-.04-.14-.05-.28-.05-.28-.08-.31-.04-.06-.03-.07,0-.06-.03-.09-.06-.12-.07-.19-.04-.17-.07-.22c-.03-.05-.05-.13-.04-.18.02-.12.01-.2-.02-.2-.02,0-.02-.02-.01-.06.01-.03,0-.07-.03-.08Zm-1.79-6.49s.01-.09.03-.11.02,0,.03.04h0s0,.08-.03.11c-.02.03-.03.02-.03-.04Zm.11.43h0s.02.03.02.07c0,.05-.01.06-.03.05-.03-.03-.03-.12,0-.12Zm.12.58s0-.05.01-.07.03,0,.04.01c0,.02,0,.05-.01.07s-.03,0-.04-.01Zm0,.18s.03-.06.06-.07h0s.02,0-.02.05-.05.05-.04.02Zm.48,1.4s.04-.02.05,0,.02.04,0,.05-.04.02-.05,0-.02-.04,0-.05Zm2.69,10.24s.02.06,0,.08-.04,0-.06-.01-.03-.05,0-.08c.02-.03.05-.02.06.01Zm.46,0s-.03,0-.05,0c-.02,0-.03-.02-.02-.04s.04-.02.05,0,.02.03.02.04Zm-1.06-1.68s-.03.03-.06.02c-.06-.02-.04-.07.03-.06h0s.04.02.03.04Zm-.36-.88s.02.06.02.06-.03,0-.05-.02-.03-.05-.02-.06.04,0,.05.02Zm-.89-3.48h0s0,.05,0,.07c-.03.04-.05.01-.02-.05.01-.03.03-.04.03-.02Z"/>
      <path class="cls-1" d="m.68,12.62s0-.07-.04-.08c-.03-.01-.07-.06-.1-.11-.03-.07-.06-.09-.15-.1-.06,0-.11-.02-.11-.04,0-.01-.03.02-.06.07-.03.05-.08.09-.1.08-.03,0-.03-.02-.02-.04.02-.03.01-.03-.03-.03-.08,0-.09.1,0,.14.05.02.05.03,0,.04-.06.01-.12.19-.08.23.01.01.04.06.06.11.02.05.06.11.09.15.09.12.12.19.09.23-.03.04.02.11.22.33.05.06.11.15.11.21,0,.06.06.14.12.19.06.05.1.11.09.13,0,.03,0,.07.04.09s.05.06.03.08,0,.04.03.05.05.03.03.04c-.02.02.02.09.19.28.05.05.08.14.08.19,0,.06.02.11.07.13.04.02.07.05.06.07s.01.05.05.09.09.12.11.19.05.15.08.17c.02.02.07.09.1.15.03.06.09.13.13.16.04.03.08.1.08.16,0,.07.03.11.08.14.04.02.07.06.07.08,0,.02.02.05.05.06.04.01.04.03,0,.05-.03.02-.04.05-.03.07.02.02.09.13.15.24.07.11.14.2.15.2.01,0,.02.02,0,.04s0,.05.04.08c.12.1.15.16.17.28,0,.07.04.13.06.13.03,0,.05.05.05.09,0,.05.03.09.1.12.06.03.09.06.07.08-.02.03.06.16.19.28.03.03.05.07.04.08s.01.05.05.08.07.08.06.1c0,.02.05.09.12.14.07.05.13.12.14.14.03.09.15.11.21.04.03-.04.07-.06.1-.04h0s.02,0,0-.03c-.05-.07-.14-.1-.16-.06,0,.02-.02.02-.04.02-.06-.03-.08-.06-.05-.1.02-.02.05-.03.06-.02s.06-.02.09-.07c.06-.09.06-.09.09,0,.04.12.09.14.18.04.05-.06.05-.11-.02-.26-.05-.1-.11-.2-.13-.22s-.03-.05-.02-.07,0-.04-.03-.05c-.03-.01-.05-.04-.05-.06,0-.02-.02-.06-.05-.09-.03-.03-.07-.09-.08-.14-.01-.05-.05-.11-.08-.14-.09-.07-.18-.27-.13-.28.02,0,.02-.01-.01-.03-.08-.03-.15-.17-.1-.22.03-.03.01-.06-.06-.12-.1-.08-.2-.23-.19-.3,0-.02-.05-.1-.12-.18-.1-.11-.12-.15-.09-.23.02-.08.01-.11-.08-.17-.06-.04-.1-.08-.09-.1s0-.04-.02-.04c-.03,0-.07-.06-.09-.1-.06-.11-.07-.13-.18-.23-.06-.05-.08-.1-.05-.12.04-.05,0-.14-.08-.16-.03-.01-.07-.08-.09-.15-.02-.07-.04-.13-.06-.12-.03,0-.13-.19-.13-.24,0-.02-.04-.08-.1-.14-.09-.09-.12-.2-.06-.22.01,0-.06-.07-.16-.15s-.18-.15-.17-.16c.05-.05.06-.09.03-.11-.12-.09-.18-.17-.15-.18.02,0,.03-.02.01-.04s-.04,0-.06,0c-.02.02-.03.01-.03-.04,0-.08-.15-.36-.23-.43-.03-.03-.06-.07-.06-.08,0-.02-.05-.08-.13-.13-.1-.07-.13-.11-.11-.16Zm2.89,5.43s-.03.01-.04-.01c0-.02,0-.05,0-.05s.02,0,.04.01.02.04,0,.05ZM.2,12.65s-.01.07-.05.06c-.05,0-.03-.12.02-.13.01,0,.02.03.02.07Zm.46.25s-.05-.02-.05-.03c0-.01.02-.02.06,0h0c.07.02.06.05,0,.04Z"/>
      <path class="cls-1" d="m16.33,13.39c.04-.05.07-.12.07-.14,0-.03.05-.1.11-.17.05-.07.1-.14.11-.16,0-.02.02-.06.03-.08.01-.02.02-.07.01-.11-.02-.08.03-.22.05-.16.02.06.04.01.05-.13,0-.07.03-.14.05-.14.02,0,.07-.1.11-.21.04-.11.09-.2.1-.21s.02-.02,0-.04-.01-.03.02-.04c.03,0,.04-.05.03-.09-.01-.05,0-.09.04-.11.03-.02.06-.06.06-.1,0-.05.02-.07.07-.08.06-.01.06-.03.01-.09-.06-.08-.04-.13.08-.25.08-.08.11-.23.06-.27-.04-.04-.04-.04.01-.03.06,0,.07,0,.09-.12.01-.07.04-.13.07-.14.03,0,.04-.05.03-.09,0-.04.02-.12.06-.18.04-.06.07-.15.07-.2,0-.05.02-.1.04-.12.03-.02.06-.09.07-.17.01-.08.04-.16.07-.19.04-.04.15-.36.19-.59,0-.04.03-.08.04-.08.02,0,.04-.07.06-.16.03-.13.04-.16.1-.17.06-.01.07-.03.06-.14-.02-.2-.01-.25.03-.27.02-.01.02-.05,0-.09-.02-.03-.03-.11-.03-.16,0-.08,0-.09-.04-.05-.04.05-.15.03-.17-.03,0-.02-.03-.03-.06-.02-.03.01-.03.02,0,.02.04,0,.04.01.01.02-.02,0-.06-.01-.09-.05-.05-.07-.16-.03-.15.06,0,.04.02.05.05,0,.03-.03.05-.03.07,0,.01.03.05.05.08.04.04,0,.05,0,.03.03-.05.06-.17.05-.25-.01-.05-.04-.08-.05-.12,0-.05.06,0,.16.08.17.03,0,0,.03-.09.07-.12.05-.15.08-.15.14,0,.04.01.08.03.1.02.02,0,.06-.05.1-.05.04-.08.11-.08.14,0,.04-.03.09-.07.12-.05.03-.07.08-.06.12,0,.04,0,.09-.02.11s-.02.07-.02.1c0,.05-.01.08-.07.11-.06.03-.08.07-.07.14,0,.05,0,.1-.04.12-.03.02-.03.04,0,.07.04.03.04.04-.02.05-.05,0-.06.02-.05.06,0,.02,0,.06-.03.09-.09.09-.12.14-.11.23,0,.05-.02.11-.06.14-.04.03-.06.07-.05.08,0,.01,0,.07-.04.12-.03.05-.05.12-.05.16s-.01.06-.02.05-.02.02-.02.07c0,.08-.06.23-.17.37-.02.03-.05.09-.05.12s-.03.07-.06.08c-.03.01-.04.06-.02.1.02.05.01.06-.01.04-.03-.03-.04-.02-.04.04,0,.04.02.08.05.09.06.02.05.04-.05.05-.07,0-.08.02-.08.13,0,.08-.02.11-.04.09-.02-.02-.03,0-.02.05.01.05,0,.09-.04.1-.09.03-.13.13-.12.24.01.07,0,.1-.04.1-.04,0-.07.04-.09.09-.02.05-.04.08-.05.07s-.02.03-.02.09c0,.25-.06.39-.21.43-.06.02-.08.05-.08.16,0,.08-.04.18-.08.24s-.07.11-.07.11c0,0,0,.01-.01.01,0,0-.04.09-.08.2-.06.16-.08.2-.15.22-.06.02-.08.04-.08.1,0,.04-.02.12-.03.16-.01.05-.02.1-.01.12,0,.02-.04.09-.1.15-.08.08-.11.13-.1.18,0,.04-.01.1-.04.14-.08.1-.15.34-.1.36.17.06.17.05.11.1-.04.03-.05.06-.03.07s0,.04-.03.06c-.05.03-.04.04.04.09.06.04.09.07.08.09-.01.02.02.02.08.01.06-.01.13,0,.16.03.04.03.07.03.11-.02.03-.04.1-.08.16-.1h0c.14-.04.15-.05.13-.31,0-.05.02-.12.04-.14.03-.02.06-.09.07-.14.01-.07.03-.09.05-.07s.03,0,.03-.04c0-.04.05-.14.12-.23.1-.14.26-.48.32-.7.03-.1.11-.25.19-.37Zm.52-3.22s.04-.01.06,0,.04.04.03.05-.03,0-.07,0c-.03-.01-.05-.03-.03-.05Zm-.58,1.59s.06.03.07.06c.01.02,0,.02-.05-.02s-.05-.05-.02-.04Zm-1.34,3.55s-.02-.04,0-.05.04-.02.06-.02c.02,0,.03.03,0,.05s-.05.03-.06.02Zm.16.04s-.04.02-.06.02c-.02,0-.03-.03,0-.05s.05-.03.06-.02.02.04,0,.05Zm.24-.06s0,.05-.01.07-.03,0-.04-.01c0-.02,0-.05.01-.07s.03,0,.04.01Zm-.22-.19s0,.05-.01.07-.03,0-.04-.01c0-.02,0-.05.01-.07s.03,0,.04.01Zm-.07-.03s-.03.01-.04-.01c0-.02,0-.05,0-.05s.02,0,.04.01.02.04,0,.05Z"/>
      <path class="cls-1" d="m26.75,4.98s.03.02.04.01,0-.03,0-.05c0-.02-.02-.03-.04-.01s-.01.04,0,.05Z"/>
      <path class="cls-1" d="m9.52,12.19c0-.05,0-.06-.04-.04-.04.02-.05.02-.03-.01.01-.02.01-.08,0-.12s0-.1,0-.13,0-.12-.06-.2c-.05-.08-.08-.19-.07-.23.01-.05,0-.08-.02-.08-.02,0-.02-.02,0-.05.03-.03.01-.09-.03-.16-.04-.06-.07-.16-.06-.23.02-.13-.08-.36-.15-.35-.03,0-.02-.05.02-.11,0-.01,0-.03-.01-.04s-.03-.08-.04-.16c0-.08-.04-.18-.08-.21-.04-.04-.05-.07-.03-.09.02-.01.02-.04,0-.07-.02-.02-.03-.07-.03-.11.01-.06-.08-.22-.16-.26-.02-.01-.02-.04,0-.07.09-.12.04-.35-.09-.37-.03,0-.05-.08-.06-.18,0-.09-.03-.18-.05-.18s-.03-.05-.01-.11c.02-.07.01-.12-.03-.14-.03-.02-.06-.07-.05-.11,0-.04,0-.08-.02-.09s-.03,0-.03.03c0,.03-.03-.05-.06-.17-.03-.12-.05-.24-.04-.27.02-.03,0-.07-.06-.11-.05-.03-.08-.09-.07-.13,0-.04-.01-.13-.04-.21-.03-.07-.05-.13-.04-.12s0-.03,0-.08c-.01-.05-.04-.11-.07-.12s-.08-.08-.1-.14q-.05-.12-.1-.06s-.08.05-.12.04c-.06-.01-.08,0-.1.09l-.03.1v-.12c-.03-.12-.11-.17-.15-.09-.01.03,0,.06.02.07.03.02.03.02-.01.03-.04,0-.05.02-.04.08,0,.04.03.07.04.07.02,0,.01.02,0,.06-.03.05-.05.06-.08.03-.06-.07-.07,0-.01.1.05.1.08.09.11,0,0-.02.02-.01.03,0,.01.02,0,.05-.01.06-.02.01-.02.04,0,.06.02.02.03.08.02.11,0,.04,0,.09.03.12.09.1.11.21.06.3-.03.05-.03.1-.02.11s.06.11.1.22c.05.14.09.21.14.23.05.02.07.05.06.09,0,.04-.03.06-.05.04-.02-.01-.05,0-.07,0-.04.04.11.24.17.24.02,0,.02,0,0,.02-.11.06-.02.32.14.38.02,0,.04.03.02.05s0,.03.02.03c.02,0,0,.05-.03.11-.04.08-.05.14-.02.18.02.04.06.13.09.21.03.08.06.15.07.16.01.01.02.08.01.14,0,.07.02.14.06.16.11.07.11.08.04.11-.06.03-.07.04-.03.1.07.12.15.46.12.52-.02.04,0,.07.03.08.04.01.05.04.03.06-.02.03,0,.04.04.05.05,0,.07.04.05.1-.01.05-.04.08-.06.08-.04,0,.08.3.13.32.02,0,.01.04,0,.08s-.02.07,0,.08.02.03.01.05c-.04.07.02.3.08.33.03.02.05.06.04.08s0,.06.01.07c.02.01.02.07-.01.15-.07.15-.04.2.11.27.12.05.13.09.02.1-.1,0-.08.1.02.13.06.02.07.04.04.06-.02.02-.02.09,0,.16.02.07.03.14.02.16s0,.1.03.18.04.16.03.18c-.03.05.05.13.14.14.05,0,.07.03.05.09-.02.06,0,.08.07.08.07,0,.08,0,.04.04-.03.02-.03.06,0,.08.02.03.04.03.04,0,0-.03,0-.01.02.04.02.09.02.09.06.02.05-.09.11-.06.07.04-.03.06-.03.07.01.02.07-.07.16-.1.2-.05.02.02.06.02.09,0h0s.04-.04.03-.06c-.01-.02-.01-.04,0-.05.02-.01.03-.04.03-.07,0-.03.02-.09.05-.14.04-.06.04-.09,0-.11-.03-.01-.04-.04-.03-.06.01-.03,0-.03-.05-.02-.06.01-.07,0-.06-.09,0-.06,0-.12-.03-.15-.02-.03-.02-.07,0-.09.05-.07.04-.24-.01-.24-.03,0-.03-.02.02-.07.05-.05.05-.08.02-.1-.02-.01-.06-.08-.09-.16s-.07-.16-.11-.2c-.03-.04-.05-.08-.03-.09.02-.01.02-.03,0-.04-.03-.02-.03-.03.02-.04.07-.02.04-.18-.04-.22-.04-.02-.05-.06-.03-.09.02-.03.04-.09.04-.13Zm-1.88-5.01h0s.06.02.06.04c0,.02-.02.01-.05,0-.04-.02-.04-.03,0-.03Zm.21,1.64s.05-.06.06-.05h0s.03.12-.01.13c-.06.02-.08-.02-.05-.08Zm1.91,5.52c-.03.07-.06.07-.1,0-.02-.03,0-.05.05-.05h0c.06,0,.07,0,.05.06Zm-.88-1.6s-.03.03-.05.02-.03-.04-.03-.06.02-.03.05-.02.04.04.03.06Z"/>
      <path class="cls-1" d="m11.98,9.96s.03.1.02.16c-.02.06-.02.11,0,.12s.02.04,0,.07c-.05.09-.07.47-.03.52.03.04.03.06-.03.1-.09.06-.11.16-.03.17.03,0,.04.02.02.03-.02.01-.04.06-.04.1,0,.06-.02.08-.05.07-.03,0-.02.02.01.07.03.04.04.07.02.06-.03-.02-.04,0-.02.06.01.05.01.13,0,.18,0,.05,0,.09.02.09.05,0,.02.14-.05.21-.06.07-.06.17,0,.26.02.03.04.09.03.14s0,.12.01.16c.02.04,0,.07-.02.08-.02,0-.03.09,0,.2.02.11.06.2.08.2.03,0,.03,0,0,.02-.02.01-.03.03-.01.04s0,.04-.02.07c-.04.04-.04.06,0,.09.03.02.06.08.07.13.01.09.02.1.09.08.1-.03.23,0,.23.06,0,.02-.01.03-.03,0-.02-.02-.07-.01-.12.02-.07.05-.07.06-.04.07.02,0,.07.05.1.1.05.08.07.09.13.07.05-.02.05-.03,0-.06-.05-.03-.06-.06-.03-.1.02-.03.05-.06.06-.05.01,0,.03.02.05.02.03,0,.09.02.13.04.01,0,.01-.02,0-.05-.03-.05-.01-.06.08-.09.11-.03.14-.09.12-.24,0-.05,0-.12.04-.16.04-.05.04-.08,0-.1-.05-.03-.05-.03,0-.04.04,0,.05-.01.03-.03-.02-.01-.02-.08,0-.14.02-.07.02-.13,0-.14-.06-.03-.08-.11-.04-.14.02-.02.03-.08.01-.15-.03-.12-.03-.15,0-.2,0-.02-.02-.06-.06-.1-.04-.04-.05-.07-.03-.07.05,0,.12-.16.08-.21-.02-.02,0-.09.04-.16.04-.08.05-.15.03-.21-.02-.05-.03-.1-.01-.11.04-.05.06-.19.02-.19-.02,0-.02-.03,0-.06s.03-.08.02-.1,0-.07.04-.11c.04-.04.05-.07.03-.08-.04-.03-.03-.25.03-.34.03-.06.02-.11-.03-.19-.07-.11-.07-.11,0-.07.05.03.07.03.05,0-.01-.03-.02-.06,0-.08.06-.07.08-.14.03-.17-.03-.02-.03-.06,0-.12.03-.05.04-.12.02-.15-.02-.03-.02-.12,0-.19.02-.09,0-.14-.04-.18-.05-.04-.06-.07-.01-.12.04-.05.04-.09,0-.15-.03-.06-.03-.08,0-.09.08,0,.15-.24.09-.3-.03-.03-.03-.08,0-.13.09-.16.12-.28.09-.37-.02-.05-.02-.12-.01-.17.01-.04,0-.1-.01-.12-.04-.05.02-.31.09-.44.06-.1.05-.19-.02-.31-.04-.07-.04-.1,0-.1.03,0,.05.02.05.04,0,.03.01.04.04.02.02-.01.02-.04,0-.07-.03-.03-.05-.1-.05-.17,0-.07-.01-.1-.03-.08-.05.08-.07-.04-.02-.11.03-.04.06-.06.07-.04.04.07.04,0,.01-.13-.02-.07-.02-.17,0-.22.02-.05.04-.12.04-.15,0-.03.02-.09.04-.12.02-.04.02-.08,0-.1-.02-.02-.02-.05,0-.07s0-.08-.01-.13c-.03-.09-.03-.1.05-.11.08-.01.08-.02.05-.07-.02-.03-.02-.11,0-.17.02-.06.02-.13.01-.15-.01-.03-.03-.1-.03-.18,0-.07-.01-.16-.02-.2s.02-.12.06-.19.06-.13.04-.14,0-.08.02-.15c.03-.07.03-.17.01-.21-.02-.04-.02-.1,0-.12s.02-.1,0-.18c-.01-.07,0-.19.03-.26.03-.07.04-.18.02-.25-.02-.07-.02-.19,0-.27.02-.08.02-.18.01-.21-.01-.04,0-.12.04-.17s.05-.12.03-.13-.02-.03,0-.04c.02-.01.03-.06.01-.1-.03-.12-.01-.4.03-.54.02-.06.02-.17,0-.25-.02-.08-.03-.14-.02-.14.03.01.05-.16.02-.18-.02,0-.02-.03-.01-.04.03-.04.05-.22.02-.31-.01-.05,0-.17.05-.26.08-.2.06-.38-.05-.41-.06-.02-.06-.03-.02-.06.04-.03.04-.04,0-.04-.03,0-.05-.02-.05-.04,0-.02-.04-.04-.1-.05-.07,0-.1,0-.09.05.01.08-.05.1-.07.02-.02-.08-.06-.1-.09-.05-.01.02-.08.05-.14.06-.14.03-.16.05-.1.09.03.02.02.08-.01.15-.07.17-.11.43-.08.47.02.02.01.04,0,.05-.02.01-.03.05-.02.09.05.2.04.26,0,.27-.04.01-.05.04-.03.11.01.05.03.1.05.1.01,0,.03.03.04.07.01.05,0,.07-.06.07-.07,0-.07,0-.04.08.02.04.02.09,0,.1-.04.02,0,.22.05.25.02.01,0,.05-.03.09-.04.04-.05.08-.03.09.02.01.02.03,0,.05-.05.04-.05.18,0,.18.03,0,.02.03-.03.07-.04.04-.06.1-.06.14,0,.04,0,.08-.03.09-.02.01-.03.03-.01.04.03.02.01.23-.02.31-.04.09-.04.1.01.08.04-.02.04.03,0,.14-.03.1-.03.18,0,.19.05.03.04.05-.02.18-.04.09-.08.44-.04.47.03.02.02.08-.02.25-.02.08-.03.09-.06.05-.03-.04-.04-.02-.03.08,0,.22.03.28.1.3.04.01.06.04.05.06s-.03.02-.04,0c-.03-.06-.08.05-.05.12.01.04.05.07.09.08.05,0,.04.02-.04.03-.11.02-.2.14-.16.21,0,.02,0,.06,0,.09-.04.12-.05.15-.05.21,0,.04,0,.09-.02.11-.03.06-.01.26.02.27.01,0,0,.06-.03.11-.07.12-.06.17.04.13.1-.04.05.03-.07.1-.07.04-.08.07-.07.16,0,.06.04.12.08.13.04.02.05.04.02.06-.02.02-.03.06,0,.08.02.03.02.07.01.09s0,.05.01.07c.03.02.02.03-.03.04-.05.01-.06,0-.06-.03.01-.06-.06-.06-.09,0-.01.02,0,.06.03.09.03.03.04.1.01.16-.04.13-.03.14.09.12.08-.02.09-.01.04.06-.03.05-.08.08-.11.07-.06,0-.06,0-.04.05.02.03.02.05,0,.04-.02,0-.02.01-.02.04,0,.03,0,.1-.03.15-.02.05-.02.15,0,.23.05.15.07.17.08.09,0-.04.03-.05.08-.02.04.02.1.04.14.03.06-.01.06,0,0,.02-.04.02-.09.02-.12,0s-.05,0-.04.02c0,.02-.01.03-.03.03s-.08.06-.13.17c-.09.16-.09.2-.05.26.03.05.03.08,0,.07-.08-.02-.13.28-.08.48.03.15.03.18-.03.13-.04-.03-.05.03-.03.14.01.06.04.11.06.11.02,0,.05.03.06.07.01.04.03.07.05.07.02,0-.02.03-.07.08-.12.11-.17.26-.1.33Zm0,2.09s-.03.01-.05.01c-.02,0-.03-.01-.02-.03s.03-.03.05-.01.03.02.02.03ZM13.3.27s-.02-.04-.01-.05.02,0,.04,0,.02.03.01.05-.03.02-.04,0Zm.14.06s.03-.02.04,0c.01.02.02.04.01.05s-.02,0-.04,0-.02-.03-.01-.05Zm-.23.14s-.03-.05-.03-.06.03,0,.05.02.04.04.03.06-.03,0-.05-.02Zm-.11,1s.05-.02.06,0h0s.01.06-.05.05c-.04,0-.04-.02-.01-.04Zm-.34,2.19s-.02-.04-.01-.05.02,0,.04,0,.02.03.01.05-.03.02-.04,0Zm-.22,3.88s.07-.07.1-.05c.02,0,.02.03.01.05-.02.04-.11.04-.12,0Zm-.2,0s.06-.03.07-.02h0s.01.07-.04.08c-.06.02-.08-.02-.04-.06Z"/>
      <polygon class="cls-1" points="12.48 13.35 12.48 13.35 12.48 13.35 12.48 13.35"/>
      <path class="cls-1" d="m26.81,5.04c-.14-.02-.15-.02-.15-.11,0-.08,0-.08-.02-.03-.01.03-.04.05-.06.04s-.05,0-.08.04c-.08.11-.11.13-.15.1-.03-.02-.08.02-.23.19-.12.14-.18.24-.16.25.02.01,0,.02-.03.02-.05,0-.07.02-.1.11-.03.07-.06.12-.1.13-.03,0-.14.12-.25.26-.11.14-.21.25-.22.24-.01,0-.06.01-.1.04-.05.03-.06.05-.03.06.03,0,.03.03.01.05-.11.15-.17.21-.2.22-.04.01-.32.31-.56.6-.09.1-.17.18-.2.18-.03,0-.04.01-.03.05.01.05,0,.05-.05.03-.05-.02-.08,0-.13.07-.03.05-.05.11-.05.13,0,.02-.02.05-.07.07-.04.02-.11.08-.14.14s-.08.1-.09.09-.05,0-.07.03-.04.07-.02.08c.03.02-.05.1-.15.14-.13.05-.29.22-.41.43-.09.14-.14.21-.2.23-.06.03-.08.04-.06.09.01.04,0,.06-.05.06-.04,0-.09.04-.13.08s-.08.07-.1.06c-.03-.01-.06.02-.09.1-.04.08-.08.13-.13.15-.06.02-.07.04-.05.07.01.02,0,.06-.02.09-.03.04-.04.04-.03-.02,0-.05,0-.05-.05,0-.03.04-.06.05-.07.02-.02-.05-.01-.06-.1.14-.04.1-.1.17-.15.2-.18.1-.73.68-.73.77,0,.04-.03.07-.1.09-.11.03-.35.29-.44.47-.03.06-.08.12-.11.12-.03,0-.09.06-.13.11-.04.06-.1.1-.12.1-.03,0-.04.02-.04.06,0,.04-.03.09-.06.11-.06.03-.05.04.02.04.04,0,.08.01.08.03,0,.03-.24.12-.27.1-.05-.04-.06.04-.02.09.04.06.04.07-.08.13-.07.04-.18.13-.25.22-.07.08-.17.21-.22.28-.06.07-.16.18-.23.25-.1.09-.12.14-.1.17.02.03,0,.06-.03.08-.03.02-.05.07-.05.12.01.12-.06.19-.12.11-.05-.07-.1-.03-.1.07,0,.05,0,.06-.03.03-.02-.02-.04,0-.06.03-.01.04-.1.17-.2.3-.1.13-.19.29-.21.36-.03.1-.06.14-.13.18-.08.05-.1.08-.12.25-.01.11-.04.21-.06.22-.02.01-.04.08-.04.16,0,.07,0,.13.01.13,0,0,.05-.04.09-.09.06-.07.08-.07.16-.01.07.05.07.08.03.11-.04.03-.03.05.02.09.12.07.2.05.21-.05.01-.1-.09-.12-.13-.03-.02.05-.02.05-.02-.02.01-.09.12-.17.16-.12.05.06.33-.22.41-.39.04-.08.14-.24.22-.34.08-.1.15-.21.15-.23,0-.02.03-.04.06-.05.07-.01.36-.33.35-.38,0-.02.01-.05.04-.06.03-.01.06-.07.08-.13.02-.07.07-.12.13-.16.06-.03.1-.08.1-.11,0-.07.22-.28.26-.24.02.01.03,0,.03-.04,0-.05.03-.08.13-.11.12-.04.13-.06.18-.19.06-.16.1-.22.28-.38.2-.18.28-.29.29-.4.01-.12.06-.18.11-.14.06.05.25-.12.3-.29.01-.04.06-.08.13-.1.09-.03.11-.05.12-.11,0-.05.03-.08.05-.07.07,0,.14-.1.12-.19-.01-.06,0-.08.03-.07.07,0,.25-.13.39-.29.07-.08.12-.13.13-.11,0,.02.02,0,.03-.05.01-.05.05-.1.08-.12.08-.04.29-.24.38-.36.15-.21.24-.3.37-.42.09-.07.12-.13.11-.16,0-.03,0-.06,0-.07s.03-.01.04,0c0,.02.04.02.07,0,.03-.02.06-.06.05-.08,0-.02.01-.07.05-.11s.06-.05.07-.03c0,.02.04,0,.08-.02.04-.03.07-.07.06-.09-.01-.04.16-.21.24-.24.04-.02.07-.05.08-.09,0-.03.04-.07.08-.09.04-.02.09-.07.11-.11.03-.06.05-.08.08-.06.02.02.05,0,.1-.09.11-.2.22-.32.32-.37h0c.12-.05.12-.05.13-.17,0-.09.03-.12.18-.23.2-.16.37-.33.38-.39.01-.07.32-.42.36-.41.02,0,.04-.03.04-.08,0-.06.03-.09.07-.1.03,0,.1-.07.15-.13.17-.24.26-.38.26-.42,0-.02.02-.04.05-.04.02,0,.06-.04.08-.09.02-.05.13-.19.23-.3.13-.15.19-.23.18-.28,0-.04.01-.08.03-.09.06-.04,0-.08-.17-.1Zm-8.61,9.82s0,.03-.02.05-.04.03-.05,0c-.01-.04.05-.08.07-.06h0Zm.02-.12s-.05.05-.04.02c0-.03.03-.06.06-.07h0s.02,0-.02.05Zm1.22-1.61s.01.06-.07.09c-.03.01-.06,0-.06-.02,0-.05.1-.1.13-.07h0Zm3.34-3.69s-.07.06-.08.03c0-.02,0-.06.02-.08s.05-.04.08-.03c.02,0,.02.04-.02.08Zm.65-.72s-.05,0-.08-.02-.04-.05-.02-.06c.02,0,.06,0,.08.02s.03.05.02.06Zm.13-.04s-.04.02-.05,0-.01-.03.01-.04c.02,0,.05,0,.05,0s0,.02-.01.04Zm1.74-1.84s-.03.01-.04-.01c0-.02,0-.05,0-.05s.02,0,.04.01.02.04,0,.05Zm.13-.14c0,.05,0,.05-.03,0-.02-.03-.02-.06,0-.06h0s.03.03.03.06Zm.41-.49s-.06.07-.07.06,0-.05.03-.09.06-.07.07-.06,0,.05-.03.09Z"/>
      <path class="cls-1" d="m9.51,14.6s.05.06.08.06h0s.05-.01.06-.03c.03-.05-.03-.11-.1-.09-.06.01-.07.02-.04.07Z"/>
      <path class="cls-1" d="m25.34,13.89s-.08.01-.09.03c0,.02-.03.02-.05,0s-.06-.02-.07,0-.08.04-.13.04c-.06,0-.11.03-.13.07-.02.04-.04.05-.06.03-.01-.02-.09,0-.16.03s-.16.06-.19.07c-.03,0-.05.01-.05.02s-.02.04-.06.06c-.04.03-.09.04-.1.03-.03-.03-.29.08-.34.14-.02.03-.08.05-.12.06-.05,0-.13.05-.18.09-.05.04-.13.09-.19.11-.05.02-.1.05-.1.07,0,.02-.02.03-.04.01-.05-.04-.35.09-.44.19-.05.06-.11.09-.19.09-.09,0-.13.02-.19.11-.06.08-.09.1-.11.06-.02-.03-.05-.02-.11.05-.05.05-.12.1-.16.11-.05,0-.09.04-.11.08-.02.04-.03.06-.04.04,0-.07-.13-.05-.13.02,0,.04-.02.06-.08.07-.05,0-.09.02-.09.05,0,.02-.04.04-.08.04-.04,0-.08.02-.1.04s-.08.06-.14.08c-.06.02-.13.07-.16.11-.03.03-.07.06-.1.05-.03,0-.05.02-.06.05-.02.06-.19.15-.23.12-.01-.01-.03,0-.04.03,0,.03-.06.06-.1.07-.05.01-.11.05-.14.08-.03.03-.07.06-.1.05-.03,0-.05.02-.07.05-.01.03-.05.06-.09.05-.04,0-.1.03-.15.06-.04.04-.13.09-.2.12-.06.03-.13.07-.15.09s-.06.05-.1.07c-.17.07-.33.16-.38.22-.03.03-.07.05-.09.05-.02,0-.06.03-.07.07-.02.06-.04.06-.07.01-.04-.05-.05-.05-.09,0-.02.04-.08.09-.13.11-.05.03-.13.1-.19.16-.06.06-.12.12-.14.12-.05,0-.04.18.02.23.05.04.09.02.13-.05,0-.01.03,0,.05,0,.05.04,0,.17-.06.19-.02,0-.03.02-.01.04s.05.01.07,0c.04-.02.04-.01.03.03-.02.07.03.1.06.03.01-.03.03-.05.05-.03s.07-.01.13-.06c.06-.05.11-.07.13-.06s.05-.01.08-.06c.03-.05.08-.08.14-.08.06,0,.09-.02.08-.05,0-.03,0-.05.03-.06.03,0,.05,0,.06.02,0,.02.03.02.05,0s.08-.05.12-.05c.06,0,.1-.04.13-.1.03-.06.08-.1.13-.1.04,0,.1-.03.12-.06s.08-.05.13-.05c.13.01.31-.06.34-.13.03-.07.23-.18.3-.16.02,0,.07-.03.11-.08s.11-.08.16-.08c.05,0,.1-.03.12-.06.02-.03.05-.06.08-.05.03,0,.06-.03.09-.08.04-.08.05-.08.06-.01.02.08.03.08.13-.06.04-.05.08-.08.1-.07s.07-.01.12-.05c.05-.04.15-.08.22-.08.1,0,.15-.03.22-.12.07-.09.11-.11.19-.11.08,0,.12-.02.16-.1.07-.12.12-.16.18-.12.02.02.06,0,.08-.02s.08-.05.11-.05c.04,0,.11-.03.16-.07.05-.04.11-.06.14-.06.1.02.22-.05.25-.16.03-.08.05-.1.14-.11.06,0,.13-.04.15-.06s.06-.03.07-.01c.02.02.07,0,.12-.06.05-.05.13-.1.16-.1.04,0,.09-.03.12-.07s.07-.06.08-.04.04,0,.06-.02.07-.03.12-.02c.05.02.07.01.04-.01-.03-.03-.03-.04.03-.03.04,0,.12-.04.2-.1.07-.06.13-.1.13-.09,0,.05.2,0,.25-.05.03-.03.05-.04.06-.02.01.04.11-.01.24-.14.05-.04.12-.1.17-.12h0c.1-.05.1-.15.01-.12-.05.02-.06.01-.02-.03.02-.03.03-.06,0-.08-.02-.02,0-.03.04-.04.04,0,.07-.02.07-.04,0-.05-.15-.09-.18-.06-.02.02-.05.01-.08-.03-.04-.05-.04-.06,0-.04.05.03.06.02.08-.1l.03-.13-.09.04s-.12.04-.17.04Zm-6.77,3.72s-.03.06-.08.06c-.02,0-.02-.02.01-.04.03-.02.06-.03.06-.02h0Zm6.94-3.28s-.04.02-.05,0-.02-.04,0-.05.04-.02.05,0,.02.04,0,.05Z"/>
    </g>
  </g>
</svg>